<?xml version="1.0" encoding="UTF-8"?>
<svg version="1.1" xmlns="http://www.w3.org/2000/svg" width="515" height="484">
<path d="M0 0 C0.33 0.99 0.66 1.98 1 3 C-0.52478823 5.3739218 -2.08059842 7.5346786 -3.8125 9.75 C-4.84388546 11.10990571 -5.87246713 12.47194179 -6.8984375 13.8359375 C-7.42147461 14.53041992 -7.94451172 15.22490234 -8.48339844 15.94042969 C-10.7462707 19.0134481 -12.84792931 22.18264772 -14.9375 25.375 C-18.38295116 30.61399234 -21.92467034 35.76775333 -25.5625 40.875 C-30.64382661 48.01510395 -35.58592677 55.24392353 -40.5 62.5 C-45.86316316 70.41693742 -51.2736871 78.29170003 -56.81323242 86.08618164 C-60.19033497 90.84033242 -63.51543251 95.62751442 -66.8125 100.4375 C-71.74915486 107.63862008 -76.73757391 114.80025699 -81.77734375 121.9296875 C-87.01391537 129.33803182 -92.23537971 136.75462726 -97.38671875 144.22265625 C-99.52579474 147.32035841 -101.6780342 150.40875012 -103.83203125 153.49609375 C-110.03228335 162.38553337 -116.22384789 171.26881777 -122.19140625 180.31640625 C-124.17284258 183.25646405 -126.23499828 186.12701045 -128.3125 189 C-133.61006358 196.33309127 -138.67574649 203.82426239 -143.75 211.3125 C-144.16182526 211.92005127 -144.57365051 212.52760254 -144.99795532 213.15356445 C-149.69346275 220.08361957 -154.37085191 227.02537109 -159 234 C-163.24487121 232.13517236 -164.84110807 229.49479969 -167.0625 225.5625 C-167.63460205 224.57963013 -167.63460205 224.57963013 -168.21826172 223.5769043 C-169.04718046 222.14969206 -169.87120015 220.71962595 -170.69091797 219.28710938 C-172.04581576 216.91995487 -173.41393022 214.56085483 -174.78515625 212.203125 C-176.66288673 208.97180194 -178.53535003 205.73753835 -180.40234375 202.5 C-183.58141662 196.98820809 -186.78779274 191.49254552 -190 186 C-192.72380724 189.33645689 -194.57225672 192.9585355 -196.4375 196.8125 C-199.78350489 203.61155021 -203.2361234 210.34871896 -206.75 217.0625 C-207.25829346 218.03388916 -207.76658691 219.00527832 -208.2902832 220.00610352 C-209.33544454 222.00245155 -210.38093881 223.99862532 -211.42675781 225.99462891 C-213.4930228 229.94182351 -215.5518055 233.89289716 -217.6105957 237.84399414 C-222.14869087 246.55219127 -226.70347745 255.25133207 -231.28173828 263.93847656 C-234.36383558 269.78744267 -237.43403868 275.64256104 -240.5 281.5 C-244.0355431 288.25322877 -247.57541945 295.00413763 -251.125 301.75 C-251.53476074 302.52899658 -251.94452148 303.30799316 -252.36669922 304.1105957 C-254.35059881 307.87905759 -256.34066604 311.64404067 -258.34375 315.40234375 C-261.94492503 322.16412452 -265.48979611 328.93974486 -268.875 335.8125 C-271.95362745 342.05657595 -275.24922294 348.1618901 -278.625 354.25 C-283.24887598 362.59183 -283.24887598 362.59183 -287.75 371 C-288.21921875 371.886875 -288.6884375 372.77375 -289.171875 373.6875 C-290.16953629 376.47342209 -290.11562239 377.28067043 -289 380 C-287.78847996 382.40605615 -286.5473597 384.76648627 -285.25 387.125 C-284.5120354 388.48644548 -283.77505413 389.84842443 -283.0390625 391.2109375 C-282.68360352 391.86803711 -282.32814453 392.52513672 -281.96191406 393.20214844 C-280.8053292 395.36384664 -279.70580454 397.54951307 -278.625 399.75 C-276.14368285 404.77191491 -273.54313857 409.72932585 -270.9375 414.6875 C-270.51355957 415.49606445 -270.08961914 416.30462891 -269.65283203 417.13769531 C-267.73796472 420.77302716 -265.79627696 424.36542335 -263.69140625 427.89453125 C-262 431 -262 431 -262 434 C-276.52 434 -291.04 434 -306 434 C-311.03322666 425.05204149 -315.88552384 416.37461599 -320.3984375 407.21484375 C-323.49922848 400.99057308 -326.90902792 394.93906399 -330.31640625 388.87890625 C-334.25286028 381.86227998 -338.14675396 374.85093371 -341.6875 367.625 C-345.46312825 359.92332007 -349.50355689 352.36724976 -353.5625 344.8125 C-353.87810883 344.22502991 -354.19371765 343.63755981 -354.51889038 343.0322876 C-357.29267248 337.87205211 -360.0741729 332.71598313 -362.85595703 327.56005859 C-366.18337305 321.38851333 -369.49175808 315.20833786 -372.75 309 C-373.16628662 308.20875732 -373.58257324 307.41751465 -374.01147461 306.60229492 C-376.2741905 302.29863202 -378.52706537 297.99003076 -380.76953125 293.67578125 C-384.96529485 285.61366442 -389.18150108 277.58132079 -393.6875 269.6875 C-396.95892883 263.95352001 -399.98875925 258.13837838 -402.90869141 252.21850586 C-408.15860051 241.59048316 -413.55707336 230.99942923 -419.625 220.8125 C-422.61041757 215.78809094 -425.2315366 210.64136523 -427.81567383 205.40454102 C-434.21714473 192.45110155 -441.10571034 179.76237112 -448.10693359 167.12548828 C-450.65675437 162.50399462 -453.1109866 157.86272997 -455.4375 153.125 C-458.44018538 147.01135934 -461.66492532 141.03569406 -464.9375 135.0625 C-465.45481689 134.11777832 -465.97213379 133.17305664 -466.50512695 132.19970703 C-467.52477098 130.33886875 -468.54470287 128.47818817 -469.56494141 126.61767578 C-471.59395607 122.91657077 -473.61866407 119.21345231 -475.625 115.5 C-476.23601562 114.3759375 -476.84703125 113.251875 -477.4765625 112.09375 C-479 109 -479 109 -481 103 C-434.47 103 -387.94 103 -340 103 C-335.226218 112.01714378 -330.54098452 120.89386588 -326.03759766 130.01489258 C-322.90465739 136.30791709 -319.48243498 142.43465654 -316.06689453 148.57739258 C-312.90475274 154.28818344 -309.92965375 160.06062388 -307.05859375 165.921875 C-304.36601226 171.37244482 -301.45387209 176.68725509 -298.5 182 C-294.8930984 188.49315886 -291.4120169 195.01663688 -288.14428711 201.68676758 C-286.11998739 205.80406614 -284.02241857 209.87502217 -281.875 213.9296875 C-281.32835693 214.96375732 -280.78171387 215.99782715 -280.21850586 217.06323242 C-279.1333914 219.1104401 -278.04323673 221.15498598 -276.94750977 223.1965332 C-276.45049561 224.13585693 -275.95348145 225.07518066 -275.44140625 226.04296875 C-274.99482666 226.87852295 -274.54824707 227.71407715 -274.08813477 228.57495117 C-272.62193411 231.84256866 -271.48075193 234.5038708 -272.69335938 237.99780273 C-273.07298828 238.63661377 -273.45261719 239.2754248 -273.84375 239.93359375 C-274.26253418 240.65828857 -274.68131836 241.3829834 -275.11279297 242.12963867 C-275.57057129 242.89123291 -276.02834961 243.65282715 -276.5 244.4375 C-277.43214974 246.04545012 -278.36181446 247.65484326 -279.2890625 249.265625 C-279.75086914 250.06291016 -280.21267578 250.86019531 -280.68847656 251.68164062 C-282.54187878 254.95787061 -284.2246538 258.30552119 -285.875 261.6875 C-288.10561646 266.2278328 -290.4128703 270.65362211 -293 275 C-296 274 -296 274 -297.54296875 271.33203125 C-298.35701172 269.58986328 -298.35701172 269.58986328 -299.1875 267.8125 C-301.58709632 262.79194475 -304.12636401 257.93381334 -306.9375 253.125 C-310.19429435 247.53832692 -313.13982093 241.84125964 -315.99536133 236.04052734 C-318.28655459 231.39529154 -320.66897231 226.81010672 -323.125 222.25 C-325.44049852 217.9476508 -327.70925633 213.63015574 -329.875 209.25 C-334.8289132 199.24819692 -340.11430143 189.41178369 -345.36328125 179.5625 C-349.43948361 171.90653346 -353.44242656 164.22655591 -357.26220703 156.4387207 C-359.363852 152.1764589 -361.63190988 148.14415772 -364 144 C-380.5 144 -397 144 -414 144 C-407.45571288 157.12535505 -407.45571288 157.12535505 -400.5 170 C-396.83436762 176.58853015 -393.324126 183.22156848 -389.99047852 189.98339844 C-384.25896029 201.58939462 -378.23787506 213.02373225 -371.625 224.15234375 C-369.89933489 227.17640593 -368.34737368 230.24990864 -366.8125 233.375 C-363.86677742 239.3644182 -360.72201018 245.21753096 -357.5 251.0625 C-351.91886752 261.19407168 -346.59084787 271.4448679 -341.33984375 281.75024414 C-337.93722437 288.39228661 -334.39102974 294.89625094 -330.55932617 301.30126953 C-328.41480119 305.01280533 -326.56473228 308.84783188 -324.6875 312.69921875 C-322.25972393 317.44799371 -319.59525485 322.05857252 -316.89501953 326.65722656 C-314 331.67658632 -314 331.67658632 -314 335 C-313.34 335 -312.68 335 -312 335 C-311.75507813 334.17242187 -311.51015625 333.34484375 -311.2578125 332.4921875 C-309.80722327 328.46477516 -307.92232438 324.87374391 -305.875 321.125 C-302.80301511 315.4178465 -299.80800221 309.68615635 -296.9375 303.875 C-294.37676068 298.70157168 -291.73821162 293.58172607 -289 288.5 C-286.28419623 283.45909861 -283.66564328 278.38138911 -281.125 273.25 C-277.89342446 266.73069574 -274.54374796 260.2815039 -271.13769531 253.85180664 C-268.57515992 249.00861475 -266.04082353 244.15212904 -263.53125 239.28125 C-258.12491488 228.78924536 -252.72504079 218.33619856 -246.7734375 208.140625 C-244.45079971 204.02740742 -242.36230708 199.81741696 -240.27319336 195.58227539 C-233.59685333 182.07128213 -226.56278282 168.73906547 -219.25 155.5625 C-215.72761988 149.2146581 -212.34439805 142.82808493 -209.14111328 136.3137207 C-204.66247292 127.22740216 -199.90958312 118.28046905 -195.20166016 109.31152344 C-194.11315354 107.21766309 -193.0485336 105.11410663 -192 103 C-191.01 103 -190.02 103 -189 103 C-184.27034709 111.08340679 -179.84783726 119.21667685 -175.71875 127.625 C-173.55072861 131.88220564 -171.13169419 135.95974546 -168.6875 140.0625 C-166.43393976 143.98536412 -164.47216632 148.02972668 -162.48828125 152.09375 C-160.55465671 155.86964674 -158.36453759 159.45311735 -156.1015625 163.0390625 C-155 165 -155 165 -155 167 C-151.62824069 164.44071281 -148.90854428 161.90188017 -146.3125 158.5625 C-145.63574219 157.70011719 -144.95898438 156.83773437 -144.26171875 155.94921875 C-142.60776083 153.79250333 -140.96540976 151.62920797 -139.33203125 149.45703125 C-138.88239014 148.86269287 -138.43274902 148.26835449 -137.96948242 147.65600586 C-137.08202823 146.4804151 -136.20053308 145.30029906 -135.32543945 144.11547852 C-134.26366504 142.70719245 -133.13697248 141.34830565 -132 140 C-131.34 140 -130.68 140 -130 140 C-129.73123047 139.41806885 -129.46246094 138.8361377 -129.18554688 138.23657227 C-127.98718561 135.97582524 -126.66003772 134.18363335 -125.03125 132.21484375 C-124.46019531 131.51939453 -123.88914062 130.82394531 -123.30078125 130.10742188 C-122.70652344 129.39134766 -122.11226563 128.67527344 -121.5 127.9375 C-120.32176121 126.51006754 -119.14463252 125.08171787 -117.96875 123.65234375 C-117.44732422 123.02320068 -116.92589844 122.39405762 -116.38867188 121.74584961 C-115.17863199 120.22457759 -114.07824146 118.61736218 -113 117 C-112.34 117 -111.68 117 -111 117 C-110.76925781 116.47019531 -110.53851563 115.94039063 -110.30078125 115.39453125 C-108.58386437 112.23396053 -106.41682661 109.49480018 -104.1875 106.6875 C-103.4752124 105.78402832 -103.4752124 105.78402832 -102.74853516 104.86230469 C-98.37638079 99.36919384 -93.79900289 94.06204581 -89.15307617 88.79956055 C-86.26834667 85.61749181 -86.26834667 85.61749181 -84 82 C-83.34 82 -82.68 82 -82 82 C-81.77957031 81.48050781 -81.55914062 80.96101563 -81.33203125 80.42578125 C-79.47748137 77.04843381 -77.09952621 74.18251262 -74.6875 71.1875 C-70.97306416 66.55329909 -67.41611085 61.85971325 -64 57 C-66.89562617 55.22882776 -69.7915379 53.45812293 -72.6875 51.6875 C-73.50412109 51.18798828 -74.32074219 50.68847656 -75.16210938 50.17382812 C-75.95810547 49.68720703 -76.75410156 49.20058594 -77.57421875 48.69921875 C-78.34169434 48.22661621 -79.10916992 47.75401367 -79.89990234 47.26708984 C-81.59967803 46.24153349 -83.33611694 45.27690503 -85.08203125 44.33203125 C-85.71496094 43.89246094 -86.34789062 43.45289063 -87 43 C-87 42.01 -87 41.02 -87 40 C-81.92353605 37.35600836 -76.75723986 35.00952421 -71.5 32.75 C-65.90427478 30.33847777 -60.42817782 27.76758167 -55 25 C-49.03991555 21.96156851 -43.00689107 19.20523948 -36.85717773 16.57421875 C-32.50704094 14.69929754 -28.27934098 12.66384183 -24.0625 10.5 C-16.23997744 6.51187 -8.1525827 3.24721514 0 0 Z " fill="#0E284E" transform="translate(491,30)"/>
<path d="M0 0 C0.66 0.33 1.32 0.66 2 1 C2 34.99 2 68.98 2 104 C-2.09850679 103.18029864 -3.65377123 102.85441256 -6.8828125 100.75 C-7.57503906 100.3065625 -8.26726562 99.863125 -8.98046875 99.40625 C-10.04201172 98.71015625 -10.04201172 98.71015625 -11.125 98 C-12.54247406 97.08055737 -13.96167868 96.16377576 -15.3828125 95.25 C-16.00559082 94.84265625 -16.62836914 94.4353125 -17.27001953 94.015625 C-19.13732199 92.83889877 -19.13732199 92.83889877 -22 92 C-22.30180176 92.55349121 -22.60360352 93.10698242 -22.91455078 93.67724609 C-33.11536516 112.36383133 -33.11536516 112.36383133 -37.57446289 119.61450195 C-39.03897552 122.06522175 -40.40950764 124.55027155 -41.765625 127.0625 C-44.92949547 132.88874052 -48.17088163 138.66836749 -51.4375 144.4375 C-52.00734619 145.44522461 -52.57719238 146.45294922 -53.16430664 147.49121094 C-56.53120553 153.43601942 -59.93946952 159.35224946 -63.40258789 165.24145508 C-64.91143547 167.84705936 -66.37062481 170.47192121 -67.80859375 173.1171875 C-68.33106689 174.07818359 -68.85354004 175.03917969 -69.3918457 176.02929688 C-70.93465774 178.87929489 -72.4725301 181.73187726 -74.0078125 184.5859375 C-82.04386033 199.52154479 -90.17733764 214.40849968 -98.97265625 228.9140625 C-101.59694167 233.26981776 -104.05167744 237.7001255 -106.46826172 242.17382812 C-109.11660917 247.06022757 -111.84374454 251.90253165 -114.5625 256.75 C-115.16674805 257.82838135 -115.77099609 258.9067627 -116.39355469 260.01782227 C-121.03409529 268.29337249 -125.70169579 276.55342869 -130.3762207 284.80981445 C-134.10608155 291.40325695 -137.7999077 298.01577636 -141.47143555 304.6418457 C-145.25356195 311.46603337 -149.07726658 318.26638849 -152.90869141 325.06298828 C-153.97556946 326.95663715 -155.04084681 328.85117569 -156.10546875 330.74609375 C-156.45625488 331.37032227 -156.80704102 331.99455078 -157.16845703 332.63769531 C-157.89747718 333.93512079 -158.62631446 335.23264904 -159.35498047 336.53027344 C-161.54662885 340.42922802 -163.75040505 344.32097089 -165.96484375 348.20703125 C-172.52430769 359.73523621 -178.93045485 371.33143906 -185.1550293 383.04443359 C-188.15697747 388.67247699 -191.26745063 394.19431632 -194.58227539 399.64379883 C-196.81602786 403.35620542 -198.9091354 407.14333959 -201 410.9375 C-201.42933838 411.71311279 -201.85867676 412.48872559 -202.30102539 413.2878418 C-205.14120504 418.42433691 -207.9594178 423.57253271 -210.74609375 428.73828125 C-212.1079063 431.19463474 -213.54260534 433.59933533 -215 436 C-219.07844736 434.64051755 -219.85650712 432.06686227 -221.6875 428.4375 C-222.03562744 427.76638184 -222.38375488 427.09526367 -222.74243164 426.40380859 C-225.5296332 421.00489827 -228.23574996 415.56363945 -230.93066406 410.11816406 C-233.34331806 405.2577544 -235.86977628 400.46745912 -238.4375 395.6875 C-241.678083 389.64785122 -244.67556281 383.5284619 -247.5625 377.3125 C-250.23497879 371.55938414 -253.03943394 365.9720009 -256.25 360.5 C-258.63505958 356.4038155 -260.96760194 352.31577788 -263.0625 348.0625 C-263.46597656 347.24910156 -263.86945313 346.43570312 -264.28515625 345.59765625 C-266.22065238 338.564296 -262.69191549 332.89449602 -259.375 326.9375 C-258.46194833 325.26128359 -257.55050264 323.58419144 -256.640625 321.90625 C-255.96676758 320.66875 -255.96676758 320.66875 -255.27929688 319.40625 C-254.10562213 317.19866636 -252.99707143 314.97559794 -251.921875 312.71875 C-251.61459473 312.07558838 -251.30731445 311.43242676 -250.99072266 310.76977539 C-250.17654619 309.04659592 -249.37306157 307.31837629 -248.5703125 305.58984375 C-246.92269513 302.87250466 -245.95520804 302.02984523 -243 301 C-238.62351715 308.64147799 -234.29444789 316.26825746 -230.4375 324.1875 C-227.55479639 330.06687458 -224.28663012 335.53642853 -220.80078125 341.06640625 C-218.61969956 344.619535 -216.77404553 348.23015326 -215 352 C-211.98507448 349.21151738 -210.02021876 346.57267949 -208.125 342.9375 C-207.61066406 341.96554687 -207.09632813 340.99359375 -206.56640625 339.9921875 C-205.79103516 338.51105469 -205.79103516 338.51105469 -205 337 C-201.92627017 331.27650307 -198.78936166 325.60275887 -195.5 320 C-192.81859145 315.43167432 -190.24191315 310.82117746 -187.71875 306.1640625 C-181.76981823 295.21261992 -175.71623741 284.34996754 -169.203125 273.72265625 C-166.89030711 269.88545677 -164.78043194 265.94322506 -162.64648438 262.00463867 C-159.72048218 256.66503176 -156.67099579 251.39679658 -153.625 246.125 C-153.2960675 245.55484161 -152.96713501 244.98468323 -152.62823486 244.39724731 C-148.43323648 237.12894944 -144.19973748 229.90005474 -139.7109375 222.80859375 C-138.29081807 220.47739314 -136.95340509 218.13203675 -135.63671875 215.7421875 C-133.01436407 210.98830638 -130.24495413 206.33386931 -127.4375 201.6875 C-126.37620655 199.9258388 -125.31501147 198.16411833 -124.25390625 196.40234375 C-123.71523926 195.5088623 -123.17657227 194.61538086 -122.62158203 193.69482422 C-121.04321113 191.07181037 -119.47148282 188.44495133 -117.90234375 185.81640625 C-112.11057848 176.11880475 -106.2334799 166.48424396 -100.21337891 156.92675781 C-98.1578753 153.66276697 -96.10913583 150.39455696 -94.0625 147.125 C-93.64806641 146.46330811 -93.23363281 145.80161621 -92.80664062 145.11987305 C-90.23960153 141.01191616 -87.70871391 136.88368851 -85.19702148 132.74169922 C-79.58157301 123.48528314 -73.77142044 114.36356305 -67.91479492 105.25805664 C-63.92917416 99.04982266 -60.00807552 92.8110713 -56.1875 86.5 C-51.40164597 78.59783783 -46.42060558 70.83554334 -41.37060547 63.10009766 C-39.09459582 59.61270275 -36.82717962 56.11976079 -34.5625 52.625 C-34.11132812 51.92882568 -33.66015625 51.23265137 -33.1953125 50.51538086 C-29.75885412 45.20067407 -26.37269035 39.85534774 -23 34.5 C-19.06436701 28.25619386 -15.11672932 22.02063152 -11.125 15.8125 C-10.69703125 15.1421875 -10.2690625 14.471875 -9.828125 13.78125 C-6.75853103 9.02433264 -3.44643382 4.49046993 0 0 Z " fill="#1D996A" transform="translate(498,28)"/>
<path d="M0 0 C0.33 0.99 0.66 1.98 1 3 C-0.52478823 5.3739218 -2.08059842 7.5346786 -3.8125 9.75 C-4.84388546 11.10990571 -5.87246713 12.47194179 -6.8984375 13.8359375 C-7.42147461 14.53041992 -7.94451172 15.22490234 -8.48339844 15.94042969 C-10.7462707 19.0134481 -12.84792931 22.18264772 -14.9375 25.375 C-18.38295116 30.61399234 -21.92467034 35.76775333 -25.5625 40.875 C-30.64382661 48.01510395 -35.58592677 55.24392353 -40.5 62.5 C-45.86316316 70.41693742 -51.2736871 78.29170003 -56.81323242 86.08618164 C-60.19033497 90.84033242 -63.51543251 95.62751442 -66.8125 100.4375 C-71.74915486 107.63862008 -76.73757391 114.80025699 -81.77734375 121.9296875 C-87.01391537 129.33803182 -92.23537971 136.75462726 -97.38671875 144.22265625 C-99.52579474 147.32035841 -101.6780342 150.40875012 -103.83203125 153.49609375 C-110.03228335 162.38553337 -116.22384789 171.26881777 -122.19140625 180.31640625 C-124.17284258 183.25646405 -126.23499828 186.12701045 -128.3125 189 C-133.61006358 196.33309127 -138.67574649 203.82426239 -143.75 211.3125 C-144.16182526 211.92005127 -144.57365051 212.52760254 -144.99795532 213.15356445 C-149.69346275 220.08361957 -154.37085191 227.02537109 -159 234 C-163.24487121 232.13517236 -164.84110807 229.49479969 -167.0625 225.5625 C-167.63460205 224.57963013 -167.63460205 224.57963013 -168.21826172 223.5769043 C-169.04718046 222.14969206 -169.87120015 220.71962595 -170.69091797 219.28710938 C-172.04581576 216.91995487 -173.41393022 214.56085483 -174.78515625 212.203125 C-176.66288673 208.97180194 -178.53535003 205.73753835 -180.40234375 202.5 C-183.58141662 196.98820809 -186.78779274 191.49254552 -190 186 C-192.72380724 189.33645689 -194.57225672 192.9585355 -196.4375 196.8125 C-199.78350489 203.61155021 -203.2361234 210.34871896 -206.75 217.0625 C-207.25829346 218.03388916 -207.76658691 219.00527832 -208.2902832 220.00610352 C-209.33544454 222.00245155 -210.38093881 223.99862532 -211.42675781 225.99462891 C-213.4930228 229.94182351 -215.5518055 233.89289716 -217.6105957 237.84399414 C-222.14869087 246.55219127 -226.70347745 255.25133207 -231.28173828 263.93847656 C-234.36383558 269.78744267 -237.43403868 275.64256104 -240.5 281.5 C-244.0355431 288.25322877 -247.57541945 295.00413763 -251.125 301.75 C-251.53476074 302.52899658 -251.94452148 303.30799316 -252.36669922 304.1105957 C-254.35059881 307.87905759 -256.34066604 311.64404067 -258.34375 315.40234375 C-261.94492503 322.16412452 -265.48979611 328.93974486 -268.875 335.8125 C-271.95361597 342.05655266 -275.24879534 348.16214419 -278.625 354.25 C-283.23824946 362.58094873 -283.23824946 362.58094873 -287.6875 371 C-288.14511719 371.886875 -288.60273438 372.77375 -289.07421875 373.6875 C-290.24777403 376.2037575 -290.24777403 376.2037575 -290 380 C-290.66 380 -291.32 380 -292 380 C-292.40605469 378.85144531 -292.81210937 377.70289063 -293.23046875 376.51953125 C-294.91324851 372.03704762 -297.02980319 367.88944073 -299.3125 363.6875 C-299.70912842 362.94838379 -300.10575684 362.20926758 -300.5144043 361.44775391 C-301.6711099 359.29566715 -302.83461125 357.14739407 -304 355 C-304.5878125 353.91074219 -305.175625 352.82148438 -305.78125 351.69921875 C-307.92537977 347.74461206 -310.09799943 343.81712816 -312.375 339.9375 C-314 337 -314 337 -314 335 C-313.34 335 -312.68 335 -312 335 C-311.63261719 333.75863281 -311.63261719 333.75863281 -311.2578125 332.4921875 C-309.80722327 328.46477516 -307.92232438 324.87374391 -305.875 321.125 C-302.80301511 315.4178465 -299.80800221 309.68615635 -296.9375 303.875 C-294.37676068 298.70157168 -291.73821162 293.58172607 -289 288.5 C-286.28419623 283.45909861 -283.66564328 278.38138911 -281.125 273.25 C-277.89342446 266.73069574 -274.54374796 260.2815039 -271.13769531 253.85180664 C-268.57515992 249.00861475 -266.04082353 244.15212904 -263.53125 239.28125 C-258.12491488 228.78924536 -252.72504079 218.33619856 -246.7734375 208.140625 C-244.45079971 204.02740742 -242.36230708 199.81741696 -240.27319336 195.58227539 C-233.59685333 182.07128213 -226.56278282 168.73906547 -219.25 155.5625 C-215.72761988 149.2146581 -212.34439805 142.82808493 -209.14111328 136.3137207 C-204.66247292 127.22740216 -199.90958312 118.28046905 -195.20166016 109.31152344 C-194.11315354 107.21766309 -193.0485336 105.11410663 -192 103 C-191.01 103 -190.02 103 -189 103 C-184.27034709 111.08340679 -179.84783726 119.21667685 -175.71875 127.625 C-173.55072861 131.88220564 -171.13169419 135.95974546 -168.6875 140.0625 C-166.43393976 143.98536412 -164.47216632 148.02972668 -162.48828125 152.09375 C-160.55465671 155.86964674 -158.36453759 159.45311735 -156.1015625 163.0390625 C-155 165 -155 165 -155 167 C-151.62824069 164.44071281 -148.90854428 161.90188017 -146.3125 158.5625 C-145.63574219 157.70011719 -144.95898438 156.83773437 -144.26171875 155.94921875 C-142.60776083 153.79250333 -140.96540976 151.62920797 -139.33203125 149.45703125 C-138.88239014 148.86269287 -138.43274902 148.26835449 -137.96948242 147.65600586 C-137.08202823 146.4804151 -136.20053308 145.30029906 -135.32543945 144.11547852 C-134.26366504 142.70719245 -133.13697248 141.34830565 -132 140 C-131.34 140 -130.68 140 -130 140 C-129.73123047 139.41806885 -129.46246094 138.8361377 -129.18554688 138.23657227 C-127.98718561 135.97582524 -126.66003772 134.18363335 -125.03125 132.21484375 C-124.17466797 131.17166992 -124.17466797 131.17166992 -123.30078125 130.10742188 C-122.70652344 129.39134766 -122.11226562 128.67527344 -121.5 127.9375 C-120.32176121 126.51006754 -119.14463252 125.08171787 -117.96875 123.65234375 C-117.44732422 123.02320068 -116.92589844 122.39405762 -116.38867188 121.74584961 C-115.17863199 120.22457759 -114.07824146 118.61736218 -113 117 C-112.34 117 -111.68 117 -111 117 C-110.76925781 116.47019531 -110.53851563 115.94039063 -110.30078125 115.39453125 C-108.58386437 112.23396053 -106.41682661 109.49480018 -104.1875 106.6875 C-103.4752124 105.78402832 -103.4752124 105.78402832 -102.74853516 104.86230469 C-98.37638079 99.36919384 -93.79900289 94.06204581 -89.15307617 88.79956055 C-86.26834667 85.61749181 -86.26834667 85.61749181 -84 82 C-83.34 82 -82.68 82 -82 82 C-81.77957031 81.48050781 -81.55914062 80.96101563 -81.33203125 80.42578125 C-79.47748137 77.04843381 -77.09952621 74.18251262 -74.6875 71.1875 C-70.97306416 66.55329909 -67.41611085 61.85971325 -64 57 C-66.89562617 55.22882776 -69.7915379 53.45812293 -72.6875 51.6875 C-73.50412109 51.18798828 -74.32074219 50.68847656 -75.16210938 50.17382812 C-76.35610352 49.44389648 -76.35610352 49.44389648 -77.57421875 48.69921875 C-78.34169434 48.22661621 -79.10916992 47.75401367 -79.89990234 47.26708984 C-81.59967803 46.24153349 -83.33611694 45.27690503 -85.08203125 44.33203125 C-85.71496094 43.89246094 -86.34789062 43.45289063 -87 43 C-87 42.01 -87 41.02 -87 40 C-81.92353605 37.35600836 -76.75723986 35.00952421 -71.5 32.75 C-65.90427478 30.33847777 -60.42817782 27.76758167 -55 25 C-49.03991555 21.96156851 -43.00689107 19.20523948 -36.85717773 16.57421875 C-32.50704094 14.69929754 -28.27934098 12.66384183 -24.0625 10.5 C-16.23997744 6.51187 -8.1525827 3.24721514 0 0 Z " fill="#1E9C6C" transform="translate(491,30)"/>
<path d="M0 0 C4.1099006 1.36996687 4.90460831 4.03012146 6.75 7.6875 C7.09998047 8.36087402 7.44996094 9.03424805 7.81054688 9.72802734 C9.51162138 13.01713027 11.16755508 16.32718246 12.796875 19.65234375 C16.26550638 26.72485132 19.97282576 33.4293908 24.203125 40.0625 C27.35935587 45.22225134 29.43922734 48.85081727 29 55 C29.66 55 30.32 55 31 55 C37.15359344 66.59306616 43.18170489 78.23506504 49 90 C49.4228125 90.70253906 49.845625 91.40507812 50.28125 92.12890625 C51.28460478 94.7409005 50.69507463 96.31068499 50 99 C48.97192383 101.22900391 48.97192383 101.22900391 47.70703125 103.4765625 C47.24425781 104.30728271 46.78148437 105.13800293 46.3046875 105.99389648 C45.81226563 106.86216064 45.31984375 107.7304248 44.8125 108.625 C43.80846072 110.42049853 42.80455346 112.2160709 41.80078125 114.01171875 C41.31689941 114.87200684 40.83301758 115.73229492 40.33447266 116.61865234 C38.69523849 119.54384262 37.09406058 122.48747902 35.5 125.4375 C33.74851126 128.67882215 31.91114814 131.84993897 30 135 C25.92155264 133.64051755 25.14349288 131.06686227 23.3125 127.4375 C22.96437256 126.76638184 22.61624512 126.09526367 22.25756836 125.40380859 C19.4703668 120.00489827 16.76425004 114.56363945 14.06933594 109.11816406 C11.65668194 104.2577544 9.13022372 99.46745912 6.5625 94.6875 C3.321917 88.64785122 0.32443719 82.5284619 -2.5625 76.3125 C-5.23497879 70.55938414 -8.03943394 64.9720009 -11.25 59.5 C-13.63505958 55.4038155 -15.96760194 51.31577788 -18.0625 47.0625 C-18.46597656 46.24910156 -18.86945313 45.43570313 -19.28515625 44.59765625 C-21.22086398 37.56352708 -17.69117343 31.89534009 -14.375 25.9375 C-13.46481249 24.26113992 -12.55596924 22.58404931 -11.6484375 20.90625 C-11.19952148 20.08125 -10.75060547 19.25625 -10.28808594 18.40625 C-7.85652834 13.86390131 -5.62458026 9.2241954 -3.375 4.58984375 C-2 2 -2 2 0 0 Z " fill="#0F274D" transform="translate(253,329)"/>
<path d="M0 0 C0.66 0.33 1.32 0.66 2 1 C2 34.99 2 68.98 2 104 C1.01 103.67 0.02 103.34 -1 103 C-0.34 103 0.32 103 1 103 C0.67 73.63 0.34 44.26 0 14 C-0.99 14.33 -1.98 14.66 -3 15 C-3 14.34 -3 13.68 -3 13 C-4.65 13.33 -6.3 13.66 -8 14 C-8.103125 14.721875 -8.20625 15.44375 -8.3125 16.1875 C-9.05986932 19.24491993 -10.28045189 21.38329635 -12 24 C-12.66 22.68 -13.32 21.36 -14 20 C-9.52248841 13.18145444 -5.00442762 6.44509618 0 0 Z " fill="#80C7AF" transform="translate(498,28)"/>
<path d="M0 0 C-1.38722729 2.77445457 -3.59805286 4.07844229 -6 6 C-6.33 6.66 -6.66 7.32 -7 8 C-8.97522846 9.04808041 -10.97481509 10.0520411 -13 11 C-12.835 11.61875 -12.67 12.2375 -12.5 12.875 C-12 15 -12 15 -12 17 C-9.525 17.99 -9.525 17.99 -7 19 C-7.33 20.32 -7.66 21.64 -8 23 C-9.10408203 22.29423828 -9.10408203 22.29423828 -10.23046875 21.57421875 C-11.20628906 20.95160156 -12.18210937 20.32898438 -13.1875 19.6875 C-14.15042969 19.07261719 -15.11335938 18.45773438 -16.10546875 17.82421875 C-17.98644837 16.63877006 -19.90601153 15.51176732 -21.86328125 14.45703125 C-22.56839844 13.97621094 -23.27351563 13.49539062 -24 13 C-24 12.01 -24 11.02 -24 10 C-19.10029917 7.5021133 -14.16104798 5.09769267 -9.1875 2.75 C-8.08792969 2.22921875 -6.98835938 1.7084375 -5.85546875 1.171875 C-3 0 -3 0 0 0 Z " fill="#3EA47C" transform="translate(428,60)"/>
<path d="M0 0 C0.99 0 1.98 0 3 0 C3.83848804 1.45537568 4.67063934 2.91440373 5.5 4.375 C6.19609375 5.59316406 6.19609375 5.59316406 6.90625 6.8359375 C8 9 8 9 8 11 C6.68 11 5.36 11 4 11 C4 9.68 4 8.36 4 7 C0.11193197 8.47478442 -1.14611482 10.33253149 -3 14 C-3.78173395 17.33982981 -3.78173395 17.33982981 -4.1875 20.8125 C-4.34605469 21.97394531 -4.50460937 23.13539063 -4.66796875 24.33203125 C-4.77753906 25.21246094 -4.88710938 26.09289062 -5 27 C-5.77730469 26.979375 -6.55460937 26.95875 -7.35546875 26.9375 C-10.1613939 27.00381433 -11.61576528 27.58712017 -14 29 C-12.37384088 23.10882476 -9.42461156 18.09444759 -6.4375 12.8125 C-5.43397294 11.02859357 -4.43257311 9.24348834 -3.43359375 7.45703125 C-2.99072021 6.67303955 -2.54784668 5.88904785 -2.09155273 5.08129883 C-0.87907431 2.90484443 -0.87907431 2.90484443 0 0 Z " fill="#4AAC86" transform="translate(299,133)"/>
<path d="M0 0 C1.8984375 0.22265625 1.8984375 0.22265625 4 1 C4.9765625 2.99609375 4.9765625 2.99609375 5.625 5.4375 C6.59663002 9.10322398 6.59663002 9.10322398 9 12 C11.06874034 12.6425235 11.06874034 12.6425235 13 13 C12.67 14.65 12.34 16.3 12 18 C12.66 18 13.32 18 14 18 C15.6446674 15.53673288 15.6446674 15.53673288 17 13 C19 15 19 15 19 19 C18.01 19 17.02 19 16 19 C16.226875 19.928125 16.45375 20.85625 16.6875 21.8125 C16.790625 22.864375 16.89375 23.91625 17 25 C15.51953125 26.69921875 15.51953125 26.69921875 14 28 C12.41373859 25.16829677 10.83154407 22.33434022 9.25 19.5 C8.8065625 18.70851563 8.363125 17.91703125 7.90625 17.1015625 C0 2.91681985 0 2.91681985 0 0 Z " fill="#166D5F" transform="translate(290,396)"/>
<path d="M0 0 C0.99 1.32 1.98 2.64 3 4 C1.7934375 4.8971875 1.7934375 4.8971875 0.5625 5.8125 C-2.24932453 8.53768568 -2.39854846 10.85292064 -2.625 14.6875 C-2.63789063 15.64011719 -2.65078125 16.59273437 -2.6640625 17.57421875 C-2.83035156 18.77498047 -2.83035156 18.77498047 -3 20 C-3.99 20.66 -4.98 21.32 -6 22 C-6.66 21.67 -7.32 21.34 -8 21 C-8 21.66 -8 22.32 -8 23 C-9.98 23.66 -11.96 24.32 -14 25 C-12.57048467 21.14805475 -10.77695533 17.72243219 -8.6875 14.1875 C-8.07132812 13.14464844 -7.45515625 12.10179687 -6.8203125 11.02734375 C-4.591952 7.3213794 -2.31705194 3.65111215 0 0 Z " fill="#249E6F" transform="translate(370,231)"/>
<path d="M0 0 C0.99 1.32 1.98 2.64 3 4 C0 7 -3 10 -6 13 C-6.639375 13.78375 -7.27875 14.5675 -7.9375 15.375 C-10 17 -10 17 -13.0625 17.25 C-16 16 -16 16 -17.015625 14.3125 C-18.43211531 10.64628977 -19.39298196 6.88491548 -20 3 C-19.34 3 -18.68 3 -18 3 C-17.16151196 4.45537568 -16.32936066 5.91440373 -15.5 7.375 C-14.80390625 8.59316406 -14.80390625 8.59316406 -14.09375 9.8359375 C-13 12 -13 12 -13 14 C-9.31999566 11.24160796 -6.50494111 8.37924618 -3.6875 4.75 C-2.99011719 3.85796875 -2.29273438 2.9659375 -1.57421875 2.046875 C-1.05472656 1.37140625 -0.53523438 0.6959375 0 0 Z " fill="#52AD8A" transform="translate(349,183)"/>
<path d="M0 0 C0.99 0.33 1.98 0.66 3 1 C1.75422781 4.9829002 0.29817267 8.60947383 -1.64453125 12.30078125 C-2.15693359 13.27853516 -2.66933594 14.25628906 -3.19726562 15.26367188 C-3.73029297 16.26978516 -4.26332031 17.27589844 -4.8125 18.3125 C-5.33392578 19.30701172 -5.85535156 20.30152344 -6.39257812 21.32617188 C-9.51499717 27.26305603 -12.71160193 33.15344997 -16 39 C-16.33 39 -16.66 39 -17 39 C-16.4140625 32.84765625 -16.4140625 32.84765625 -16 31 C-15.34 30.67 -14.68 30.34 -14 30 C-13.67 29.01 -13.34 28.02 -13 27 C-12.34 27 -11.68 27 -11 27 C-11 25.02 -11 23.04 -11 21 C-9.68 20.34 -8.36 19.68 -7 19 C-7 17.68 -7 16.36 -7 15 C-6.34 15 -5.68 15 -5 15 C-5.268125 14.278125 -5.53625 13.55625 -5.8125 12.8125 C-5.874375 11.884375 -5.93625 10.95625 -6 10 C-4.37660195 8.29115995 -2.70680947 6.62553283 -1 5 C-0.12761142 2.32209104 -0.12761142 2.32209104 0 0 Z " fill="#60AD8E" transform="translate(289,229)"/>
<path d="M0 0 C0.33 0 0.66 0 1 0 C1 27.39 1 54.78 1 83 C-4 82 -4 82 -6 80 C-4.02 80.33 -2.04 80.66 0 81 C0 54.27 0 27.54 0 0 Z " fill="#31906B" transform="translate(498,48)"/>
<path d="M0 0 C1.4639251 4.4503323 -0.05804116 6.81731942 -2 11 C-2.144375 11.721875 -2.28875 12.44375 -2.4375 13.1875 C-3.26941255 15.86810712 -4.89468788 17.21367457 -7 19 C-7.66 19 -8.32 19 -9 19 C-9.66 21.31 -10.32 23.62 -11 26 C-12.65 26.33 -14.3 26.66 -16 27 C-11.71838702 17.37228462 -5.80780769 8.75057249 0 0 Z " fill="#5AB18F" transform="translate(426,140)"/>
<path d="M0 0 C0.33 0.66 0.66 1.32 1 2 C0.0625 4.625 0.0625 4.625 -1 7 C-1.66 7 -2.32 7 -3 7 C-3.0825 7.94875 -3.165 8.8975 -3.25 9.875 C-4 13 -4 13 -6.0625 14.375 C-6.701875 14.58125 -7.34125 14.7875 -8 15 C-7.7525 15.53625 -7.505 16.0725 -7.25 16.625 C-6.85735162 20.35515965 -8.7346687 22.16833587 -11 25 C-11.99 25.33 -12.98 25.66 -14 26 C-14 27.65 -14 29.3 -14 31 C-14.33 30.34 -14.66 29.68 -15 29 C-15.99 29.33 -16.98 29.66 -18 30 C-16.54034315 25.99700168 -14.62367871 22.55240781 -12.375 18.9375 C-11.85583008 18.10182495 -11.85583008 18.10182495 -11.32617188 17.24926758 C-7.67819141 11.41496368 -3.8592215 5.69645727 0 0 Z " fill="#40A57D" transform="translate(445,110)"/>
<path d="M0 0 C0.66 0.33 1.32 0.66 2 1 C0.72668751 5.1481895 -0.82960764 8.77495092 -2.96875 12.546875 C-3.82533203 14.06087891 -3.82533203 14.06087891 -4.69921875 15.60546875 C-5.29347656 16.64316406 -5.88773437 17.68085938 -6.5 18.75 C-7.09425781 19.80316406 -7.68851562 20.85632813 -8.30078125 21.94140625 C-12.72995722 29.72995722 -12.72995722 29.72995722 -15 32 C-16.125 28.25 -16.125 28.25 -15 26 C-15.27942455 24.32345271 -15.60828247 22.65391846 -16 21 C-14.68 21 -13.36 21 -12 21 C-10.28184562 18.74832154 -10.28184562 18.74832154 -9 16 C-8.608125 15.236875 -8.21625 14.47375 -7.8125 13.6875 C-7.544375 13.130625 -7.27625 12.57375 -7 12 C-6.34 12 -5.68 12 -5 12 C-4.67 10.02 -4.34 8.04 -4 6 C-3.34 6 -2.68 6 -2 6 C-1.34 4.02 -0.68 2.04 0 0 Z " fill="#5EAF90" transform="translate(424,206)"/>
<path d="M0 0 C6.96637731 9.01648263 11.75254815 19.91421075 17 30 C17.37874268 30.69182373 17.75748535 31.38364746 18.14770508 32.09643555 C19.21083158 34.47088337 18.85764136 35.59860419 18 38 C15.03947516 34.63576723 14.07710178 31.30840713 13 27 C12.34 27 11.68 27 11 27 C10.37237545 25.77217138 9.74803935 24.54266164 9.125 23.3125 C8.77695313 22.62800781 8.42890625 21.94351562 8.0703125 21.23828125 C7.33472184 19.699984 6.65754491 18.13281533 6.03125 16.546875 C4.60816455 13.03228518 2.80588653 9.74572357 1.0234375 6.40234375 C0 4 0 4 0 0 Z " fill="#033243" transform="translate(178,368)"/>
<path d="M0 0 C1.32 0 2.64 0 4 0 C5.33333333 1.33333333 6.66666667 2.66666667 8 4 C10.64184541 4.79681318 10.64184541 4.79681318 13 5 C12.814375 6.051875 12.62875 7.10375 12.4375 8.1875 C12.04482521 11.60938035 12.2497946 13.71785136 13 17 C12.67 17.66 12.34 18.32 12 19 C6 9 6 9 4.42578125 6.16796875 C3.95527344 5.45253906 3.48476563 4.73710937 3 4 C2.34 4 1.68 4 1 4 C0.67 2.68 0.34 1.36 0 0 Z " fill="#25A270" transform="translate(298,212)"/>
<path d="M0 0 C0.66 0.33 1.32 0.66 2 1 C-7.55852317 20.62608013 -7.55852317 20.62608013 -14 29 C-14 27.02 -14 25.04 -14 23 C-13.34 23 -12.68 23 -12 23 C-11.67 19.7 -11.34 16.4 -11 13 C-9.68 12.67 -8.36 12.34 -7 12 C-7 11.34 -7 10.68 -7 10 C-6.34 10 -5.68 10 -5 10 C-4.67 9.01 -4.34 8.02 -4 7 C-3.3400321 5.33066942 -2.67441131 3.6635479 -2 2 C-1.34 2 -0.68 2 0 2 C0 1.34 0 0.68 0 0 Z " fill="#35A078" transform="translate(460,143)"/>
<path d="M0 0 C0.66 1.32 1.32 2.64 2 4 C1.09674384 5.32176485 0.17682097 6.63215066 -0.75 7.9375 C-1.26046875 8.66839844 -1.7709375 9.39929688 -2.296875 10.15234375 C-4.19177915 12.20805399 -5.27425729 12.62669176 -8 13 C-8 13.99 -8 14.98 -8 16 C-7.34 16 -6.68 16 -6 16 C-6 16.66 -6 17.32 -6 18 C-6.99 18.33 -7.98 18.66 -9 19 C-9.66 18.67 -10.32 18.34 -11 18 C-11 18.66 -11 19.32 -11 20 C-12.65 20.33 -14.3 20.66 -16 21 C-14.37278635 17.28570797 -12.05329514 14.38358949 -9.5 11.25 C-8.7059375 10.26515625 -7.911875 9.2803125 -7.09375 8.265625 C-6.4028125 7.51796875 -5.711875 6.7703125 -5 6 C-4.34 6 -3.68 6 -3 6 C-2.690625 5.38125 -2.38125 4.7625 -2.0625 4.125 C-1.375 2.75 -0.6875 1.375 0 0 Z " fill="#5BAF8F" transform="translate(412,106)"/>
<path d="M0 0 C3.34243648 1.89404734 3.97997149 2.94091591 5.25 6.6875 C5.4975 7.780625 5.745 8.87375 6 10 C6.66 10 7.32 10 8 10 C8.66 12.31 9.32 14.62 10 17 C10.99 16.67 11.98 16.34 13 16 C14 17 14 17 14.09765625 19.50390625 C14.08605469 20.51324219 14.07445312 21.52257812 14.0625 22.5625 C14.05347656 23.57441406 14.04445312 24.58632813 14.03515625 25.62890625 C14.02355469 26.41136719 14.01195312 27.19382812 14 28 C13.34 28 12.68 28 12 28 C11.60167969 26.86175781 11.20335937 25.72351563 10.79296875 24.55078125 C8.73297546 19.05383265 5.89381086 14.03876283 3.05273438 8.91601562 C2.66021484 8.19478516 2.26769531 7.47355469 1.86328125 6.73046875 C1.32634644 5.76210083 1.32634644 5.76210083 0.77856445 4.77416992 C0 3 0 3 0 0 Z " fill="#1C7263" transform="translate(187,382)"/>
<path d="M0 0 C1.32 0 2.64 0 4 0 C1.99839031 5.26797595 -0.73302621 9.95421018 -3.5625 14.8125 C-4.06974609 15.69615234 -4.57699219 16.57980469 -5.09960938 17.49023438 C-5.58365234 18.32490234 -6.06769531 19.15957031 -6.56640625 20.01953125 C-7.00927979 20.78370361 -7.45215332 21.54787598 -7.90844727 22.33520508 C-8.26865967 22.8845874 -8.62887207 23.43396973 -9 24 C-9.33 24 -9.66 24 -10 24 C-10 22.35 -10 20.7 -10 19 C-9.01 18.67 -8.02 18.34 -7 18 C-7 17.01 -7 16.02 -7 15 C-6.34 15 -5.68 15 -5 15 C-4.855625 13.9275 -4.71125 12.855 -4.5625 11.75 C-3.31578947 3.43859649 -3.31578947 3.43859649 0 0 Z " fill="#69B194" transform="translate(388,268)"/>
<path d="M0 0 C0.99 0 1.98 0 3 0 C1.55797524 4.15151338 -0.5010438 7.29978445 -3.125 10.8125 C-4.21167969 12.27623047 -4.21167969 12.27623047 -5.3203125 13.76953125 C-5.87460937 14.50558594 -6.42890625 15.24164063 -7 16 C-7.66 14.68 -8.32 13.36 -9 12 C-8.01 12 -7.02 12 -6 12 C-6.99 9.03 -7.98 6.06 -9 3 C-5 2 -5 2 -1 2 C-0.67 1.34 -0.34 0.68 0 0 Z " fill="#37AA7C" transform="translate(473,54)"/>
<path d="M0 0 C0.66 0.66 1.32 1.32 2 2 C-0.31 6.29 -2.62 10.58 -5 15 C-7.475 14.01 -7.475 14.01 -10 13 C-10 11.02 -10 9.04 -10 7 C-8.5459375 6.5978125 -8.5459375 6.5978125 -7.0625 6.1875 C-5.5465625 5.5996875 -5.5465625 5.5996875 -4 5 C-3.67 4.01 -3.34 3.02 -3 2 C-2.01 1.34 -1.02 0.68 0 0 Z " fill="#32A578" transform="translate(444,171)"/>
<path d="M0 0 C1.65 0.33 3.3 0.66 5 1 C2.21401853 6.04593846 -0.81903118 10.76319304 -4.1875 15.4375 C-4.63802734 16.07365234 -5.08855469 16.70980469 -5.55273438 17.36523438 C-6.67407915 18.93040976 -7.83356893 20.46812969 -9 22 C-9.33 22 -9.66 22 -10 22 C-10 20.02 -10 18.04 -10 16 C-9.38125 15.938125 -8.7625 15.87625 -8.125 15.8125 C-5.7997142 15.19772624 -5.7997142 15.19772624 -4.9375 12.875 C-4.628125 11.92625 -4.31875 10.9775 -4 10 C-3.484375 8.80375 -2.96875 7.6075 -2.4375 6.375 C-0.9868113 3.09512701 -0.9868113 3.09512701 0 0 Z " fill="#4AA983" transform="translate(379,186)"/>
<path d="M0 0 C-1.74746051 4.76752814 -4.1132153 9.15645102 -6.5 13.625 C-6.90347656 14.388125 -7.30695313 15.15125 -7.72265625 15.9375 C-9.38347526 19.06181299 -11.03436954 22.05155431 -13 25 C-13 22.69 -13 20.38 -13 18 C-12.67 18 -12.34 18 -12 18 C-11.896875 17.21625 -11.79375 16.4325 -11.6875 15.625 C-11 13 -11 13 -8 11 C-6.92362145 8.24925482 -6.12385691 5.57283822 -5.5 2.6875 C-5.335 2.130625 -5.17 1.57375 -5 1 C-3 0 -3 0 0 0 Z " fill="#50957C" transform="translate(239,332)"/>
<path d="M0 0 C2.97 0.495 2.97 0.495 6 1 C4.42686828 5.72843614 1.79358765 9.3433843 -1.125 13.3125 C-1.59292969 13.95767578 -2.06085938 14.60285156 -2.54296875 15.26757812 C-3.6905929 16.84848894 -4.84465477 18.42472301 -6 20 C-6.66 18.68 -7.32 17.36 -8 16 C-7.34 15.34 -6.68 14.68 -6 14 C-5.34 14.33 -4.68 14.66 -4 15 C-4 13.35 -4 11.7 -4 10 C-3.01 9.67 -2.02 9.34 -1 9 C-1.020625 8.2575 -1.04125 7.515 -1.0625 6.75 C-1.00671312 4.29537721 -0.6930096 2.33890739 0 0 Z " fill="#5CB090" transform="translate(418,128)"/>
<path d="M0 0 C0.66 0.33 1.32 0.66 2 1 C2.625 3.0625 2.625 3.0625 3 5 C2.01 4.67 1.02 4.34 0 4 C-0.268125 4.763125 -0.53625 5.52625 -0.8125 6.3125 C-1.98525491 8.96662954 -2.95681362 10.03854108 -5 12 C-5.495 12.86625 -5.99 13.7325 -6.5 14.625 C-8 17 -8 17 -11 18 C-9.47762789 12.214986 -6.66953274 6.72464012 -3 2 C-2.01 2 -1.02 2 0 2 C0 1.34 0 0.68 0 0 Z " fill="#42907A" transform="translate(301,354)"/>
<path d="M0 0 C0.99 0 1.98 0 3 0 C3.83848804 1.45537568 4.67063934 2.91440373 5.5 4.375 C5.9640625 5.18710938 6.428125 5.99921875 6.90625 6.8359375 C8 9 8 9 8 11 C6.68 11 5.36 11 4 11 C4 9.68 4 8.36 4 7 C3.05125 7.495 2.1025 7.99 1.125 8.5 C-2 10 -2 10 -4 10 C-2.8905928 6.51329166 -1.73662334 3.22515763 0 0 Z " fill="#5BAC8E" transform="translate(299,133)"/>
<path d="M0 0 C0.99 0.33 1.98 0.66 3 1 C1.61735163 3.86867231 0.07851447 6.56024032 -1.625 9.25 C-2.07101562 9.95640625 -2.51703125 10.6628125 -2.9765625 11.390625 C-3.48316406 12.18726563 -3.48316406 12.18726563 -4 13 C-7.84375 11.328125 -7.84375 11.328125 -9.25 8.375 C-9.4975 7.59125 -9.745 6.8075 -10 6 C-7.36 5.67 -4.72 5.34 -2 5 C-1.34 3.35 -0.68 1.7 0 0 Z " fill="#4EA684" transform="translate(336,251)"/>
<path d="M0 0 C0.66 0 1.32 0 2 0 C2 0.66 2 1.32 2 2 C2.99 2.33 3.98 2.66 5 3 C3.94124926 6.40312738 2.99097846 9.01353231 1 12 C-0.65 12 -2.3 12 -4 12 C-3.34 8.7 -2.68 5.4 -2 2 C-1.34 2 -0.68 2 0 2 C0 1.34 0 0.68 0 0 Z " fill="#21A26E" transform="translate(292,218)"/>
<path d="M0 0 C1.32 0.33 2.64 0.66 4 1 C3.46890625 1.99 2.9378125 2.98 2.390625 4 C-1.15776852 10.62640689 -4.6931978 17.24861217 -8 24 C-10 21 -10 21 -10 19 C-9.01 19 -8.02 19 -7 19 C-7.33 17.35 -7.66 15.7 -8 14 C-6.68 13.67 -5.36 13.34 -4 13 C-4 11.68 -4 10.36 -4 9 C-3.34 9 -2.68 9 -2 9 C-2 8.01 -2 7.02 -2 6 C-1.34 6 -0.68 6 0 6 C-0.185625 5.38125 -0.37125 4.7625 -0.5625 4.125 C-1 2 -1 2 0 0 Z " fill="#569785" transform="translate(316,396)"/>
<path d="M0 0 C2.625 0.9375 2.625 0.9375 5 2 C5 3.66666667 5 5.33333333 5 7 C7.475 7.99 7.475 7.99 10 9 C9.67 10.32 9.34 11.64 9 13 C7.2063257 11.8782037 5.4151227 10.75245517 3.625 9.625 C2.62726563 8.99851562 1.62953125 8.37203125 0.6015625 7.7265625 C-2 6 -2 6 -4 4 C-2 1 -2 1 0 0 Z " fill="#45A57F" transform="translate(411,70)"/>
<path d="M0 0 C1.04940314 3.14820941 1.066855 3.99340864 0 7 C-0.66 7.66 -1.32 8.32 -2 9 C-2.33 9.99 -2.66 10.98 -3 12 C-3.66 12 -4.32 12 -5 12 C-5.11214844 12.70511719 -5.22429687 13.41023437 -5.33984375 14.13671875 C-6.06314908 17.27389512 -7.19457691 19.90127906 -8.5625 22.8125 C-9.01753906 23.78832031 -9.47257813 24.76414062 -9.94140625 25.76953125 C-10.29074219 26.50558594 -10.64007813 27.24164063 -11 28 C-11.99 28 -12.98 28 -14 28 C-12.74241557 23.93502792 -11.23747765 20.32309788 -9.1796875 16.6015625 C-8.64472656 15.62832031 -8.10976562 14.65507812 -7.55859375 13.65234375 C-7.00300781 12.65332031 -6.44742188 11.65429688 -5.875 10.625 C-5.31167969 9.60277344 -4.74835938 8.58054688 -4.16796875 7.52734375 C-2.7830669 5.01574208 -1.39363545 2.50676281 0 0 Z " fill="#6EB398" transform="translate(244,238)"/>
<path d="M0 0 C0.33 0 0.66 0 1 0 C0.25 7.625 0.25 7.625 -2 11 C-2.99 11 -3.98 11 -5 11 C-4.95875 11.78375 -4.9175 12.5675 -4.875 13.375 C-5 16 -5 16 -7 18 C-7.99 18 -8.98 18 -10 18 C-8.64780353 13.28501126 -6.69161848 9.67370412 -3.9375 5.625 C-3.22464844 4.56539062 -2.51179688 3.50578125 -1.77734375 2.4140625 C-1.19082031 1.61742187 -0.60429687 0.82078125 0 0 Z " fill="#51AA88" transform="translate(398,185)"/>
<path d="M0 0 C0.66 0.99 1.32 1.98 2 3 C1.649375 3.61875 1.29875 4.2375 0.9375 4.875 C0.628125 5.57625 0.31875 6.2775 0 7 C0.33 7.66 0.66 8.32 1 9 C0.566875 9.391875 0.13375 9.78375 -0.3125 10.1875 C-2.14164898 12.00305796 -2.14164898 12.00305796 -3.4375 14.625 C-5 17 -5 17 -7.09765625 17.6484375 C-8.03931641 17.82246094 -8.03931641 17.82246094 -9 18 C-7.69100294 15.18585648 -6.37721835 12.37397463 -5.0625 9.5625 C-4.68931641 8.76005859 -4.31613281 7.95761719 -3.93164062 7.13085938 C-3.39506836 5.98520508 -3.39506836 5.98520508 -2.84765625 4.81640625 C-2.51773682 4.10943604 -2.18781738 3.40246582 -1.84790039 2.67407227 C-1 1 -1 1 0 0 Z " fill="#5AAF90" transform="translate(279,172)"/>
<path d="M0 0 C1 2 1 2 0.375 4.1875 C-1.97355454 8.99136156 -4.51983056 13.01322037 -9 16 C-9.99 16 -10.98 16 -12 16 C-10.32770299 12.04030824 -7.63695006 8.9838799 -4.875 5.75 C-4.40707031 5.19570312 -3.93914062 4.64140625 -3.45703125 4.0703125 C-2.30824672 2.71052674 -1.15460347 1.35484835 0 0 Z " fill="#5BB08F" transform="translate(395,127)"/>
<path d="M0 0 C2.0625 0.4375 2.0625 0.4375 4 1 C3.34 1 2.68 1 2 1 C2.33 2.98 2.66 4.96 3 7 C3.66 7 4.32 7 5 7 C5 8.65 5 10.3 5 12 C5.99 12.33 6.98 12.66 8 13 C7.67 14.65 7.34 16.3 7 18 C4.59430669 14.94216092 2.63810385 11.77542004 0.75 8.375 C0.20859375 7.41335937 -0.3328125 6.45171875 -0.890625 5.4609375 C-1.43976562 4.24277344 -1.43976562 4.24277344 -2 3 C-1 1 -1 1 0 0 Z " fill="#425268" transform="translate(20,147)"/>
<path d="M0 0 C0.99 0 1.98 0 3 0 C1.6077541 4.62675657 -0.29520984 8.64686231 -2.625 12.875 C-3.25664062 14.02742188 -3.88828125 15.17984375 -4.5390625 16.3671875 C-5.02117187 17.23601562 -5.50328125 18.10484375 -6 19 C-7.046875 17.13671875 -7.046875 17.13671875 -8 15 C-7.07451225 12.30066074 -6.57626463 11.28813232 -4 10 C-4 9.01 -4 8.02 -4 7 C-3.34 7 -2.68 7 -2 7 C-1.855625 6.030625 -1.71125 5.06125 -1.5625 4.0625 C-1 1 -1 1 0 0 Z " fill="#52A687" transform="translate(269,268)"/>
<path d="M0 0 C1.32 0.33 2.64 0.66 4 1 C-1.445 9.415 -1.445 9.415 -7 18 C-8.20547945 13.17808219 -8.20547945 13.17808219 -7 10 C-5 9 -5 9 -2 8 C-2.33 6.35 -2.66 4.7 -3 3 C-2.01 3 -1.02 3 0 3 C0 2.01 0 1.02 0 0 Z " fill="#59AB8D" transform="translate(348,233)"/>
<path d="M0 0 C0.66 1.32 1.32 2.64 2 4 C1.01 5.485 1.01 5.485 0 7 C-0.66 7 -1.32 7 -2 7 C-2.28875 7.61875 -2.5775 8.2375 -2.875 8.875 C-4 11 -4 11 -6 13 C-8.125 12.625 -8.125 12.625 -10 12 C-9.04956626 10.66102417 -8.08940853 9.32894573 -7.125 8 C-6.59132813 7.2575 -6.05765625 6.515 -5.5078125 5.75 C-5.01023437 5.1725 -4.51265625 4.595 -4 4 C-3.34 4 -2.68 4 -2 4 C-1.34 2.68 -0.68 1.36 0 0 Z " fill="#4EAE87" transform="translate(382,143)"/>
<path d="M0 0 C1.65 0 3.3 0 5 0 C3.95652174 6.26086957 3.95652174 6.26086957 2 9 C-0.625 9.75 -0.625 9.75 -3 10 C-2.67 7.36 -2.34 4.72 -2 2 C-1.34 2 -0.68 2 0 2 C0 1.34 0 0.68 0 0 Z " fill="#2C8469" transform="translate(323,380)"/>
<path d="M0 0 C3.09709224 3.66706709 5.51329599 7.41382634 7.8125 11.625 C8.43769531 12.75164062 9.06289062 13.87828125 9.70703125 15.0390625 C11 18 11 18 10 21 C9.34 20.67 8.68 20.34 8 20 C8 19.34 8 18.68 8 18 C7.34 18 6.68 18 6 18 C5.67 15.36 5.34 12.72 5 10 C4.34 10 3.68 10 3 10 C2.67 8.02 2.34 6.04 2 4 C1.34 4 0.68 4 0 4 C0 2.68 0 1.36 0 0 Z " fill="#415268" transform="translate(166,344)"/>
<path d="M0 0 C0.99 0 1.98 0 3 0 C3.33 0.99 3.66 1.98 4 3 C2.34765625 5.91796875 2.34765625 5.91796875 0.0625 9.1875 C-0.32357422 9.74630859 -0.70964844 10.30511719 -1.10742188 10.88085938 C-2.06242753 12.26031198 -3.03004093 13.63102056 -4 15 C-4.66 14.67 -5.32 14.34 -6 14 C-6 13.34 -6 12.68 -6 12 C-5.34 12 -4.68 12 -4 12 C-3.31292445 9.50935112 -3 7.62113708 -3 5 C-2.67 4.01 -2.34 3.02 -2 2 C-1.01 2.33 -0.02 2.66 1 3 C0.67 2.01 0.34 1.02 0 0 Z " fill="#4EAB86" transform="translate(357,218)"/>
<path d="M0 0 C0.33 1.32 0.66 2.64 1 4 C0.34 4 -0.32 4 -1 4 C-0.67 4.99 -0.34 5.98 0 7 C-2.33333333 9.33333333 -4.66666667 11.66666667 -7 14 C-8.32 13.67 -9.64 13.34 -11 13 C-7.37 8.71 -3.74 4.42 0 0 Z " fill="#4FAB88" transform="translate(424,92)"/>
<path d="M0 0 C0.33 0.99 0.66 1.98 1 3 C-0.65234375 5.69921875 -0.65234375 5.69921875 -2.9375 8.6875 C-3.68902344 9.68136719 -4.44054687 10.67523438 -5.21484375 11.69921875 C-5.80394531 12.45847656 -6.39304687 13.21773437 -7 14 C-8 11 -8 11 -6.5625 7.8125 C-6.046875 6.884375 -5.53125 5.95625 -5 5 C-6.32 4.67 -7.64 4.34 -9 4 C-6.03 2.68 -3.06 1.36 0 0 Z " fill="#59A98A" transform="translate(491,30)"/>
<path d="M0 0 C0.99 0.33 1.98 0.66 3 1 C3 3.97 3 6.94 3 10 C1.02 10.33 -0.96 10.66 -3 11 C-2.53199289 6.94393835 -2.12046792 3.53411321 0 0 Z " fill="#263B5A" transform="translate(236,360)"/>
<path d="M0 0 C0.66 0.33 1.32 0.66 2 1 C0.63408831 4.54243452 -0.90931484 7.92627929 -2.625 11.3125 C-3.07101563 12.19550781 -3.51703125 13.07851563 -3.9765625 13.98828125 C-4.31429687 14.65214844 -4.65203125 15.31601562 -5 16 C-5.33 16 -5.66 16 -6 16 C-7.04285714 10.78571429 -7.04285714 10.78571429 -7 8 C-5.25 5.75 -5.25 5.75 -3 4 C-1.97676564 2.68441297 -0.96873032 1.35622245 0 0 Z " fill="#4A957F" transform="translate(223,358)"/>
<path d="M0 0 C-1.12451727 2.9719385 -2.22293791 5.33440687 -4 8 C-7.37462715 7.45276317 -9.08235 6.9451 -12 5 C-10.37750059 4.16180842 -8.75191503 3.3295884 -7.125 2.5 C-6.22007812 2.0359375 -5.31515625 1.571875 -4.3828125 1.09375 C-2 0 -2 0 0 0 Z " fill="#48AE86" transform="translate(453,48)"/>
<path d="M0 0 C0.99 0.33 1.98 0.66 3 1 C1.53967505 6.31027254 -0.98320986 10.46330032 -4 15 C-4.66 14.01 -5.32 13.02 -6 12 C-5.01621713 9.80540745 -4.22103594 8.20335306 -2.4375 6.5625 C-0.54736879 4.50800956 -0.3675753 2.72005723 0 0 Z " fill="#45A57F" transform="translate(289,229)"/>
<path d="M0 0 C3.93639176 1.31213059 4.28653597 2.82801522 6.1875 6.4375 C6.71730469 7.42621094 7.24710938 8.41492188 7.79296875 9.43359375 C9 12 9 12 9 14 C8.01 14 7.02 14 6 14 C4 11 4 11 4 8 C3.34 8 2.68 8 2 8 C1.01 5.69 0.02 3.38 -1 1 C-0.67 0.67 -0.34 0.34 0 0 Z " fill="#2F435C" transform="translate(149,134)"/>
<path d="M0 0 C0.66 0.66 1.32 1.32 2 2 C1.73314868 6.66989808 -0.62840087 10.09833692 -3 14 C-4.0625 12.125 -4.0625 12.125 -5 10 C-4.67 9.34 -4.34 8.68 -4 8 C-4.27942455 6.32345271 -4.60828247 4.65391846 -5 3 C-3.68 3 -2.36 3 -1 3 C-0.67 2.01 -0.34 1.02 0 0 Z " fill="#30A176" transform="translate(413,224)"/>
<path d="M0 0 C0.33 0 0.66 0 1 0 C1.33 1.98 1.66 3.96 2 6 C1.34 6 0.68 6 0 6 C-0.0825 6.763125 -0.165 7.52625 -0.25 8.3125 C-1.14615794 11.52373261 -2.21611025 12.29374499 -5 14 C-5.66 13.67 -6.32 13.34 -7 13 C-6.57847656 12.22914063 -6.15695312 11.45828125 -5.72265625 10.6640625 C-5.17480469 9.66117187 -4.62695312 8.65828125 -4.0625 7.625 C-3.51722656 6.62726563 -2.97195313 5.62953125 -2.41015625 4.6015625 C-1.5850241 3.07929654 -0.77435609 1.54871217 0 0 Z " fill="#45957B" transform="translate(313,329)"/>
<path d="M0 0 C0.33 1.32 0.66 2.64 1 4 C0.34 4 -0.32 4 -1 4 C-1 7.63 -1 11.26 -1 15 C-1.99 15.33 -2.98 15.66 -4 16 C-4 15.34 -4 14.68 -4 14 C-4.66 14 -5.32 14 -6 14 C-5.31113213 10.61108678 -4.01283514 7.81988387 -2.4375 4.75 C-1.75494141 3.41195312 -1.75494141 3.41195312 -1.05859375 2.046875 C-0.70925781 1.37140625 -0.35992187 0.6959375 0 0 Z " fill="#56B08C" transform="translate(263,202)"/>
<path d="M0 0 C0.66 0 1.32 0 2 0 C2.83848804 1.45537568 3.67063934 2.91440373 4.5 4.375 C5.19609375 5.59316406 5.19609375 5.59316406 5.90625 6.8359375 C7 9 7 9 7 11 C7.66 11 8.32 11 9 11 C9 11.66 9 12.32 9 13 C7.35 13 5.7 13 4 13 C0.71428571 4.57142857 0.71428571 4.57142857 0 0 Z " fill="#5AAC8C" transform="translate(329,186)"/>
<path d="M0 0 C2 2 2 2 2 5 C1.01 5.495 1.01 5.495 0 6 C-0.28875 6.99 -0.5775 7.98 -0.875 9 C-1.24625 9.99 -1.6175 10.98 -2 12 C-4.125 12.875 -4.125 12.875 -6 13 C-4.58707905 8.1725201 -2.57025846 4.2837641 0 0 Z " fill="#42947A" transform="translate(188,346)"/>
<path d="M0 0 C0.99 0.33 1.98 0.66 3 1 C1.52485505 3.1695061 0.0451561 5.33563707 -1.4375 7.5 C-1.85837891 8.12003906 -2.27925781 8.74007812 -2.71289062 9.37890625 C-3.78308137 10.93710398 -4.88879518 12.47078051 -6 14 C-6.33 14 -6.66 14 -7 14 C-7 12.35 -7 10.7 -7 9 C-6.01 9 -5.02 9 -4 9 C-4.33 8.01 -4.66 7.02 -5 6 C-4.34 6 -3.68 6 -3 6 C-3 5.01 -3 4.02 -3 3 C-2.34 3 -1.68 3 -1 3 C-0.67 2.01 -0.34 1.02 0 0 Z " fill="#66B797" transform="translate(397,164)"/>
<path d="M0 0 C0.66 0.33 1.32 0.66 2 1 C0.88222229 3.31625061 -0.24374092 5.62784605 -1.375 7.9375 C-1.85066406 8.9265332 -1.85066406 8.9265332 -2.3359375 9.93554688 C-4.7734375 14.88671875 -4.7734375 14.88671875 -7 16 C-7 14.02 -7 12.04 -7 10 C-6.34 10 -5.68 10 -5 10 C-4.67 9.01 -4.34 8.02 -4 7 C-3.3400321 5.33066942 -2.67441131 3.6635479 -2 2 C-1.34 2 -0.68 2 0 2 C0 1.34 0 0.68 0 0 Z " fill="#58AD8C" transform="translate(460,143)"/>
<path d="M0 0 C1.65 0 3.3 0 5 0 C5 0.99 5 1.98 5 3 C4.01 3 3.02 3 2 3 C0.02 6.63 -1.96 10.26 -4 14 C-4.33 14 -4.66 14 -5 14 C-5 12.02 -5 10.04 -5 8 C-4.34 8 -3.68 8 -3 8 C-3 7.01 -3 6.02 -3 5 C-2.34 5 -1.68 5 -1 5 C-0.67 3.35 -0.34 1.7 0 0 Z " fill="#58AF8E" transform="translate(474,117)"/>
<path d="M0 0 C2.97 0.33 5.94 0.66 9 1 C9 3.31 9 5.62 9 8 C7.02 8.33 5.04 8.66 3 9 C3.66 7.35 4.32 5.7 5 4 C4.175 3.525625 3.35 3.05125 2.5 2.5625 C1.675 2.046875 0.85 1.53125 0 1 C0 0.67 0 0.34 0 0 Z " fill="#53AE89" transform="translate(422,83)"/>
<path d="M0 0 C0.66 0.33 1.32 0.66 2 1 C2 1.99 2 2.98 2 4 C0.741875 4.103125 -0.51625 4.20625 -1.8125 4.3125 C-5.28573354 4.73368298 -6.7228072 5.26736864 -9 8 C-11.0625 8.8125 -11.0625 8.8125 -13 9 C-13.66 8.34 -14.32 7.68 -15 7 C-12.54595776 5.80283341 -10.08748321 4.6170654 -7.625 3.4375 C-6.57699219 2.92413086 -6.57699219 2.92413086 -5.5078125 2.40039062 C-3.69947784 1.53969288 -1.85148044 0.76347564 0 0 Z " fill="#6DB99C" transform="translate(468,40)"/>
<path d="M0 0 C2.9667903 2.57360122 4.49144778 5.51704221 6.25 9 C6.79140625 10.051875 7.3328125 11.10375 7.890625 12.1875 C9 15 9 15 8 18 C7.01 17.67 6.02 17.34 5 17 C5.66 17 6.32 17 7 17 C7 16.34 7 15.68 7 15 C6.34 15 5.68 15 5 15 C4.731875 14.13375 4.46375 13.2675 4.1875 12.375 C3.07291667 8.96875 3.07291667 8.96875 1.375 5.8125 C0 3 0 3 0 0 Z " fill="#032E41" transform="translate(295,408)"/>
<path d="M0 0 C0.99 0.33 1.98 0.66 3 1 C2.9175 1.680625 2.835 2.36125 2.75 3.0625 C3.00609665 6.07163558 3.52158602 7.13094334 5.0625 9.625 C5.701875 10.73875 6.34125 11.8525 7 13 C6.67 13.99 6.34 14.98 6 16 C3.01425172 11.5099816 0.26554294 7.31528033 -1 2 C-0.67 1.34 -0.34 0.68 0 0 Z " fill="#177163" transform="translate(180,366)"/>
<path d="M0 0 C0.99 0.33 1.98 0.66 3 1 C1.43358249 5.30764815 -0.68336156 9.06171464 -3 13 C-3.66 12.01 -4.32 11.02 -5 10 C-4.34 10 -3.68 10 -3 10 C-3 7.36 -3 4.72 -3 2 C-2.34 2 -1.68 2 -1 2 C-0.67 1.34 -0.34 0.68 0 0 Z " fill="#529A84" transform="translate(335,363)"/>
<path d="M0 0 C1.2109375 1.578125 1.2109375 1.578125 2 4 C0.98613427 6.4546223 -0.02723255 8.49546254 -1.375 10.75 C-1.71789062 11.35199219 -2.06078125 11.95398438 -2.4140625 12.57421875 C-3.26177818 14.05772119 -4.12905505 15.53001487 -5 17 C-5.85432111 13.89984991 -6.18380965 12.05817494 -5 9 C-4.2884375 8.319375 -4.2884375 8.319375 -3.5625 7.625 C-1.39867306 5.37461998 -0.85484398 2.95907532 0 0 Z " fill="#4FA086" transform="translate(251,303)"/>
<path d="M0 0 C0.33 1.32 0.66 2.64 1 4 C0.34 4 -0.32 4 -1 4 C-1 5.65 -1 7.3 -1 9 C-1.66 9 -2.32 9 -3 9 C-3.0825 9.78375 -3.165 10.5675 -3.25 11.375 C-4 14 -4 14 -6.0625 15.3125 C-7.0215625 15.6528125 -7.0215625 15.6528125 -8 16 C-6.42986223 10.03347646 -3.24970218 5.17090975 0 0 Z " fill="#56A78B" transform="translate(348,268)"/>
<path d="M0 0 C0.99 1.32 1.98 2.64 3 4 C1.37660195 5.70884005 -0.29319053 7.37446717 -2 9 C-2.66 9 -3.32 9 -4 9 C-4 9.99 -4 10.98 -4 12 C-4.99 12.33 -5.98 12.66 -7 13 C-5.35821735 8.22390502 -2.73453298 4.20617096 0 0 Z " fill="#5EB293" transform="translate(370,231)"/>
<path d="M0 0 C4 0 4 0 6.6875 2.375 C9 5 9 5 10 7 C9.01 8.32 8.02 9.64 7 11 C5.02 7.535 5.02 7.535 3 4 C2.34 4 1.68 4 1 4 C0.67 2.68 0.34 1.36 0 0 Z " fill="#57B18C" transform="translate(298,212)"/>
<path d="M0 0 C0.33 0.66 0.66 1.32 1 2 C0.0625 4.625 0.0625 4.625 -1 7 C-1.66 7 -2.32 7 -3 7 C-3.12375 7.94875 -3.2475 8.8975 -3.375 9.875 C-4 13 -4 13 -6 15 C-6.99 14.67 -7.98 14.34 -9 14 C-6.03 9.38 -3.06 4.76 0 0 Z " fill="#60AF90" transform="translate(445,110)"/>
<path d="M0 0 C-1.46032495 5.31027254 -3.98320986 9.46330032 -7 14 C-7.66 12.68 -8.32 11.36 -9 10 C-8.01 10 -7.02 10 -6 10 C-6.0825 9.0925 -6.165 8.185 -6.25 7.25 C-6 4 -6 4 -4.125 1.625 C-2 0 -2 0 0 0 Z " fill="#57AC89" transform="translate(407,241)"/>
<path d="M0 0 C0.66 0.33 1.32 0.66 2 1 C0.55049545 4.7910119 -1.15172566 8.3874638 -3 12 C-3.88935377 8.696686 -4.46274105 5.37705625 -5 2 C-4.01 1.67 -3.02 1.34 -2 1 C-1.34 1.33 -0.68 1.66 0 2 C0 1.34 0 0.68 0 0 Z " fill="#45987D" transform="translate(342,352)"/>
<path d="M0 0 C0.99 0 1.98 0 3 0 C3 1.65 3 3.3 3 5 C3.99 5.33 4.98 5.66 6 6 C5.67 6.99 5.34 7.98 5 9 C5.99 9.33 6.98 9.66 8 10 C8 11.98 8 13.96 8 16 C5.70351643 13.10414095 3.95652443 10.1827969 2.3125 6.875 C1.65701172 5.57175781 1.65701172 5.57175781 0.98828125 4.2421875 C0 2 0 2 0 0 Z " fill="#566679" transform="translate(169,252)"/>
<path d="M0 0 C0 2.62113708 -0.31292445 4.50935112 -1 7 C-1.66 7 -2.32 7 -3 7 C-3.66 8.98 -4.32 10.96 -5 13 C-6.32 12.67 -7.64 12.34 -9 12 C-9 11.34 -9 10.68 -9 10 C-8.34 10 -7.68 10 -7 10 C-6.773125 9.46375 -6.54625 8.9275 -6.3125 8.375 C-4.56617944 5.21499137 -2.3597151 2.7323017 0 0 Z " fill="#5BAF8D" transform="translate(368,160)"/>
<path d="M0 0 C2 2 2 2 2 6 C1.01 6 0.02 6 -1 6 C-1.33 7.32 -1.66 8.64 -2 10 C-2.66 10 -3.32 10 -4 10 C-4.66 8.35 -5.32 6.7 -6 5 C-5.01 5 -4.02 5 -3 5 C-1.28288757 2.55503957 -1.28288757 2.55503957 0 0 Z " fill="#11755A" transform="translate(307,409)"/>
<path d="M0 0 C2.77398263 3.46747828 4.95912413 7.06402511 7 11 C6.67 11.66 6.34 12.32 6 13 C4.125 12.75 4.125 12.75 2 12 C-0.38943733 8.73024366 -0.62734639 4.95012832 -1 1 C-0.67 0.67 -0.34 0.34 0 0 Z M2 7 C3 10 3 10 3 10 Z " fill="#51657D" transform="translate(201,230)"/>
<path d="M0 0 C0.33 0 0.66 0 1 0 C0.938125 0.763125 0.87625 1.52625 0.8125 2.3125 C0.74101915 5.04525312 0.74101915 5.04525312 2.5 6.8125 C2.995 7.204375 3.49 7.59625 4 8 C-1.625 10 -1.625 10 -5 10 C-3.66654496 6.40992874 -2.1056769 3.20429093 0 0 Z " fill="#4CAE88" transform="translate(380,214)"/>
<path d="M0 0 C2.125 0.375 2.125 0.375 4 1 C2.34832443 4.5786304 0.21713508 7.74820188 -2 11 C-2.66 9.68 -3.32 8.36 -4 7 C-3.01 7 -2.02 7 -1 7 C-1.20625 6.21625 -1.4125 5.4325 -1.625 4.625 C-1.74875 3.75875 -1.8725 2.8925 -2 2 C-1.34 1.34 -0.68 0.68 0 0 Z " fill="#53AD89" transform="translate(468,59)"/>
<path d="M0 0 C0.33 0 0.66 0 1 0 C1 6.6 1 13.2 1 20 C0.67 20 0.34 20 0 20 C-0.33 15.38 -0.66 10.76 -1 6 C-1.99 6.33 -2.98 6.66 -4 7 C-2.92598892 4.08482708 -2.22189824 2.22189824 0 0 Z " fill="#459978" transform="translate(498,28)"/>
<path d="M0 0 C2.78712092 1.39356046 3.26463329 3.16505673 4.625 5.9375 C5.07101563 6.83339844 5.51703125 7.72929687 5.9765625 8.65234375 C7 11 7 11 7 13 C5.68 12.67 4.36 12.34 3 12 C3 10.68 3 9.36 3 8 C2.01 8 1.02 8 0 8 C0 5.36 0 2.72 0 0 Z " fill="#576678" transform="translate(117,252)"/>
<path d="M0 0 C0.66 0 1.32 0 2 0 C0.48109469 4.55671592 -1.95402262 8.31723292 -5 12 C-5.33 12 -5.66 12 -6 12 C-6 10.02 -6 8.04 -6 6 C-5.38125 5.938125 -4.7625 5.87625 -4.125 5.8125 C-1.72238859 5.171081 -1.72238859 5.171081 -0.75 2.4375 C-0.5025 1.633125 -0.255 0.82875 0 0 Z " fill="#58AD8E" transform="translate(375,196)"/>
<path d="M0 0 C0.56332031 0.36609375 1.12664062 0.7321875 1.70703125 1.109375 C-3.08778943 3.86639689 -6.87906007 4.64265873 -12.29296875 5.109375 C-10.9717837 2.4670049 -9.63487683 2.09317516 -6.98046875 0.859375 C-6.20058594 0.48296875 -5.42070312 0.1065625 -4.6171875 -0.28125 C-2.29296875 -0.890625 -2.29296875 -0.890625 0 0 Z " fill="#51AA86" transform="translate(440.29296875,54.890625)"/>
<path d="M0 0 C1.19568017 3.58704052 0.43725845 4.88330077 -1.09765625 8.21484375 C-2.28018011 10.55429571 -3.59306677 12.78910493 -5 15 C-6.2109375 13.359375 -6.2109375 13.359375 -7 11 C-5.6640625 8.203125 -5.6640625 8.203125 -3.625 5.25 C-2.95726562 4.26515625 -2.28953125 3.2803125 -1.6015625 2.265625 C-1.07304687 1.51796875 -0.54453125 0.7703125 0 0 Z " fill="#54AC8B" transform="translate(491,37)"/>
<path d="M0 0 C0.99 0.66 1.98 1.32 3 2 C2.67 3.65 2.34 5.3 2 7 C1.34 7 0.68 7 0 7 C-0.33 8.65 -0.66 10.3 -1 12 C-1.33 12 -1.66 12 -2 12 C-2 10.35 -2 8.7 -2 7 C-1.01 6.67 -0.02 6.34 1 6 C0.67 4.02 0.34 2.04 0 0 Z M-7 14 C-6.01 14.33 -5.02 14.66 -4 15 C-4.33 15.66 -4.66 16.32 -5 17 C-5.66 17 -6.32 17 -7 17 C-7 16.01 -7 15.02 -7 14 Z " fill="#157B5B" transform="translate(189,345)"/>
<path d="M0 0 C0.66 0.99 1.32 1.98 2 3 C1.34 3 0.68 3 0 3 C-0.1546875 4.6396875 -0.1546875 4.6396875 -0.3125 6.3125 C-1 10 -1 10 -2.4375 11.9375 C-4 13 -4 13 -6 13 C-4.58707905 8.1725201 -2.57025846 4.2837641 0 0 Z " fill="#5CA08A" transform="translate(204,315)"/>
<path d="M0 0 C1.32 0 2.64 0 4 0 C2.8141763 3.37503669 1.72426311 5.64722731 -1 8 C-1.99 7.01 -2.98 6.02 -4 5 C-2.25 2.5 -2.25 2.5 0 0 Z " fill="#4DA885" transform="translate(388,268)"/>
<path d="M0 0 C4.46292437 2.1711524 6.36467495 4.28641603 8 9 C7.06640625 11.19140625 7.06640625 11.19140625 6 13 C4.99491199 11.21118264 3.99607264 9.41885304 3 7.625 C2.1646875 6.12839844 2.1646875 6.12839844 1.3125 4.6015625 C0 2 0 2 0 0 Z " fill="#4A5C71" transform="translate(46,201)"/>
<path d="M0 0 C0.33 0.99 0.66 1.98 1 3 C1.66 3 2.32 3 3 3 C3.33 2.34 3.66 1.68 4 1 C4 4 4 4 1.6875 6.6875 C-1 9 -1 9 -4 9 C-2.25 2.25 -2.25 2.25 0 0 Z " fill="#3CA67C" transform="translate(371,156)"/>
<path d="M0 0 C0.99 0 1.98 0 3 0 C1.34832443 3.5786304 -0.78286492 6.74820188 -3 10 C-4.41377341 7.36095629 -5.37240135 4.92879371 -6 2 C-4 2 -4 2 -2.375 3.5 C-1.92125 3.995 -1.4675 4.49 -1 5 C-0.67 3.35 -0.34 1.7 0 0 Z " fill="#54AE89" transform="translate(408,148)"/>
<path d="M0 0 C0.66 0.33 1.32 0.66 2 1 C1.29445932 4.66881155 -0.27735506 7.70450534 -2 11 C-2.33 11 -2.66 11 -3 11 C-3.33 8.69 -3.66 6.38 -4 4 C-3.01 3.67 -2.02 3.34 -1 3 C-0.67 2.01 -0.34 1.02 0 0 Z " fill="#438E7A" transform="translate(204,393)"/>
<path d="M0 0 C1.02018585 2.6686569 1.06982104 3.80064256 0.109375 6.54296875 C-0.33921875 7.41566406 -0.7878125 8.28835938 -1.25 9.1875 C-1.90742188 10.50814453 -1.90742188 10.50814453 -2.578125 11.85546875 C-4 14 -4 14 -7 15 C-5.63408831 11.45756548 -4.09068516 8.07372071 -2.375 4.6875 C-1.70597656 3.36298828 -1.70597656 3.36298828 -1.0234375 2.01171875 C-0.68570313 1.34785156 -0.34796875 0.68398438 0 0 Z " fill="#67AC94" transform="translate(225,274)"/>
<path d="M0 0 C2.48982535 2.27745789 4.10368997 4.62335238 5.75 7.5625 C6.19859375 8.34753906 6.6471875 9.13257813 7.109375 9.94140625 C7.40328125 10.62074219 7.6971875 11.30007812 8 12 C7 14 7 14 5 15 C5 13.68 5 12.36 5 11 C4.34 10.67 3.68 10.34 3 10 C0.8537299 6.28530176 0 4.35855288 0 0 Z " fill="#586779" transform="translate(79,181)"/>
<path d="M0 0 C1.60031344 3.20062687 0.03173691 5.72271806 -1 9 C-1.66 9 -2.32 9 -3 9 C-3.33 9.99 -3.66 10.98 -4 12 C-6.0625 13.1875 -6.0625 13.1875 -8 14 C-6.6744419 10.37723685 -5.05653045 7.36494652 -2.875 4.1875 C-2.33617187 3.39730469 -1.79734375 2.60710937 -1.2421875 1.79296875 C-0.83226562 1.20128906 -0.42234375 0.60960938 0 0 Z " fill="#6EB899" transform="translate(460,86)"/>
<path d="M0 0 C0.66 0.99 1.32 1.98 2 3 C-1.44615385 9.76923077 -1.44615385 9.76923077 -4.25 10.9375 C-4.8275 10.958125 -5.405 10.97875 -6 11 C-4.54955729 6.89041233 -2.48889248 3.56741255 0 0 Z " fill="#59B08E" transform="translate(467,75)"/>
<path d="M0 0 C1.32 0.33 2.64 0.66 4 1 C1.525 5.455 1.525 5.455 -1 10 C-1.66 10 -2.32 10 -3 10 C-2.67 8.02 -2.34 6.04 -2 4 C-1.34 4 -0.68 4 0 4 C0 2.68 0 1.36 0 0 Z " fill="#334360" transform="translate(284,454)"/>
<path d="M0 0 C0.99 0 1.98 0 3 0 C3 0.66 3 1.32 3 2 C3.66 2 4.32 2 5 2 C5.54372951 5.05847848 6 7.88772805 6 11 C3.46166551 9.73083275 3.10599099 8.58375191 1.875 6.0625 C1.52179688 5.35222656 1.16859375 4.64195312 0.8046875 3.91015625 C0 2 0 2 0 0 Z " fill="#4D5C74" transform="translate(247,397)"/>
<path d="M0 0 C2.125 0.9375 2.125 0.9375 4 2 C2.68 4.31 1.36 6.62 0 9 C-1.5625 7.25 -1.5625 7.25 -3 5 C-2.8125 2.8125 -2.8125 2.8125 -2 1 C-1.34 0.67 -0.68 0.34 0 0 Z " fill="#3B4D69" transform="translate(206,281)"/>
<path d="M0 0 C0.5534764 2.07553648 1 3.84365964 1 6 C0.34 6 -0.32 6 -1 6 C-1.2475 6.928125 -1.495 7.85625 -1.75 8.8125 C-3.06454245 12.16458325 -3.97963384 13.1877803 -7 15 C-5.45454854 9.52067211 -2.84456788 4.88570819 0 0 Z " fill="#68B999" transform="translate(252,223)"/>
<path d="M0 0 C2.97 0.495 2.97 0.495 6 1 C5.25 3.4375 5.25 3.4375 4 6 C1.875 6.8125 1.875 6.8125 0 7 C0 4.66666667 0 2.33333333 0 0 Z " fill="#41A880" transform="translate(418,128)"/>
<path d="M0 0 C2.625 0.375 2.625 0.375 5 1 C4.19185349 2.33597652 3.37836819 3.668725 2.5625 5 C2.11003906 5.7425 1.65757812 6.485 1.19140625 7.25 C0.79824219 7.8275 0.40507812 8.405 0 9 C-0.33 9 -0.66 9 -1 9 C-1.625 5.625 -1.625 5.625 -2 2 C-1.34 1.34 -0.68 0.68 0 0 Z " fill="#50AF8B" transform="translate(435,106)"/>
<path d="M0 0 C2.3125 0.0625 2.3125 0.0625 5 1 C6.8125 4.5625 6.8125 4.5625 8 8 C7.34 8 6.68 8 6 8 C6 7.01 6 6.02 6 5 C4.02 5 2.04 5 0 5 C0 3.35 0 1.7 0 0 Z " fill="#2E425F" transform="translate(257,341)"/>
<path d="M0 0 C3.10415931 2.53976671 3.87460076 5.22187398 5 9 C5.33 9.66 5.66 10.32 6 11 C5.34 11.66 4.68 12.32 4 13 C3.13083113 11.59248779 2.28014851 10.1735479 1.4375 8.75 C0.72400391 7.56664062 0.72400391 7.56664062 -0.00390625 6.359375 C-1.13022151 3.69155375 -1.0169313 2.65498232 0 0 Z " fill="#54637B" transform="translate(69,241)"/>
<path d="M0 0 C0.91058531 3.07322544 1.08886184 5.80097361 1 9 C-2 8 -2 8 -3.1875 6.125 C-4 4 -4 4 -4 1 C-2.68 0.67 -1.36 0.34 0 0 Z " fill="#263857" transform="translate(45,189)"/>
<path d="M0 0 C2.625 0.9375 2.625 0.9375 5 2 C4.67 2.99 4.34 3.98 4 5 C1.125 5.625 1.125 5.625 -2 6 C-2.66 5.34 -3.32 4.68 -4 4 C-2 1 -2 1 0 0 Z " fill="#30A97B" transform="translate(411,70)"/>
<path d="M0 0 C-0.99 0.33 -1.98 0.66 -3 1 C-3.33 1.99 -3.66 2.98 -4 4 C-6.97 4 -9.94 4 -13 4 C-8.93522219 0.68795882 -5.26054188 -1.94834884 0 0 Z " fill="#59B192" transform="translate(483,36)"/>
<path d="M0 0 C2.29633824 3.44450737 2.54016485 5.93812283 3 10 C2.34 10 1.68 10 1 10 C0.67 9.34 0.34 8.68 0 8 C-0.99 7.67 -1.98 7.34 -3 7 C-2.25 2.25 -2.25 2.25 0 0 Z " fill="#197E5E" transform="translate(196,334)"/>
<path d="M0 0 C0.99 0.33 1.98 0.66 3 1 C0.525 5.455 0.525 5.455 -2 10 C-2.33 10 -2.66 10 -3 10 C-3.29296875 3.9453125 -3.29296875 3.9453125 -3 2 C-2.01 1.34 -1.02 0.68 0 0 Z " fill="#549E86" transform="translate(352,334)"/>
<path d="M0 0 C0.33 0 0.66 0 1 0 C0.53680089 4.72463088 -0.09891706 8.17057052 -3 12 C-3.66 12 -4.32 12 -5 12 C-4.35550393 8.98782888 -3.34977818 6.48344164 -1.9375 3.75 C-1.57527344 3.04359375 -1.21304688 2.3371875 -0.83984375 1.609375 C-0.56269531 1.07828125 -0.28554687 0.5471875 0 0 Z " fill="#61A58E" transform="translate(210,303)"/>
<path d="M0 0 C1.04940314 3.14820941 1.066855 3.99340864 0 7 C-0.66 7.66 -1.32 8.32 -2 9 C-2.33 9.99 -2.66 10.98 -3 12 C-3.66 12 -4.32 12 -5 12 C-5 12.99 -5 13.98 -5 15 C-5.66 15 -6.32 15 -7 15 C-5.45454854 9.52067211 -2.84456788 4.88570819 0 0 Z " fill="#7BBFA5" transform="translate(244,238)"/>
<path d="M0 0 C1.26950234 3.0006419 0.98068499 4.05184556 -0.1875 7.1875 C-2 10 -2 10 -4.11328125 10.67578125 C-4.73589844 10.78277344 -5.35851562 10.88976562 -6 11 C-5.18993474 9.35296694 -4.3768779 7.70740494 -3.5625 6.0625 C-3.11003906 5.14597656 -2.65757812 4.22945312 -2.19140625 3.28515625 C-1 1 -1 1 0 0 Z " fill="#62B093" transform="translate(387,203)"/>
<path d="M0 0 C2.77398263 3.46747828 4.95912413 7.06402511 7 11 C6.67 11.66 6.34 12.32 6 13 C2.50580046 10.78700696 1.1377194 8.98201791 0 5 C-0.125 2.1875 -0.125 2.1875 0 0 Z " fill="#506275" transform="translate(182,194)"/>
<path d="M0 0 C2.0625 2.1875 2.0625 2.1875 4 5 C3.75 7.8125 3.75 7.8125 3 10 C0.47411298 7.63707344 -0.88820837 6.33537489 -2 3 C-1.34 2.01 -0.68 1.02 0 0 Z " fill="#4BAB85" transform="translate(315,159)"/>
<path d="M0 0 C0.99 0.33 1.98 0.66 3 1 C3 2.32 3 3.64 3 5 C2.01 5 1.02 5 0 5 C-0.33 5.66 -0.66 6.32 -1 7 C-1.66 7 -2.32 7 -3 7 C-3.1875 4.625 -3.1875 4.625 -3 2 C-2.01 1.34 -1.02 0.68 0 0 Z " fill="#177A5F" transform="translate(204,389)"/>
<path d="M0 0 C-0.80814651 1.33597652 -1.62163181 2.668725 -2.4375 4 C-2.88996094 4.7425 -3.34242188 5.485 -3.80859375 6.25 C-4.20175781 6.8275 -4.59492188 7.405 -5 8 C-5.33 8 -5.66 8 -6 8 C-7.125 2.25 -7.125 2.25 -6 0 C-2.49056604 -1.24528302 -2.49056604 -1.24528302 0 0 Z " fill="#3FA67F" transform="translate(458,81)"/>
<path d="M0 0 C0.91058531 3.07322544 1.08886184 5.80097361 1 9 C-0.65 9.33 -2.3 9.66 -4 10 C-3.29445932 6.33118845 -1.72264494 3.29549466 0 0 Z " fill="#4C977F" transform="translate(305,343)"/>
<path d="M0 0 C3 1 3 1 4.75 3.9375 C5.1625 4.948125 5.575 5.95875 6 7 C5.67 7.66 5.34 8.32 5 9 C3 7.6875 3 7.6875 1 6 C1 5.01 1 4.02 1 3 C0.01 2.67 -0.98 2.34 -2 2 C-1.34 1.34 -0.68 0.68 0 0 Z " fill="#5E6A7E" transform="translate(253,329)"/>
<path d="M0 0 C1 3 1 3 1 5 C0.34 5.66 -0.32 6.32 -1 7 C-1 7.66 -1 8.32 -1 9 C-1.66 9 -2.32 9 -3 9 C-3.33 9.99 -3.66 10.98 -4 12 C-4.66 12 -5.32 12 -6 12 C-4.43358249 7.69235185 -2.31663844 3.93828536 0 0 Z " fill="#6FB99D" transform="translate(362,244)"/>
<path d="M0 0 C0.66 0 1.32 0 2 0 C6.73559322 5.16610169 6.73559322 5.16610169 7 9 C6.34 9.66 5.68 10.32 5 11 C4.16426177 9.35538655 3.33147118 7.70927487 2.5 6.0625 C2.0359375 5.14597656 1.571875 4.22945312 1.09375 3.28515625 C0 1 0 1 0 0 Z " fill="#546578" transform="translate(154,224)"/>
<path d="M0 0 C1 2 1 2 0.44140625 4.1640625 C0.15136719 4.97617188 -0.13867188 5.78828125 -0.4375 6.625 C-0.72496094 7.44226563 -1.01242187 8.25953125 -1.30859375 9.1015625 C-1.53675781 9.72804687 -1.76492188 10.35453125 -2 11 C-2.99 10.67 -3.98 10.34 -5 10 C-3.66511872 6.40608886 -2.03977277 3.24509304 0 0 Z " fill="#66B598" transform="translate(404,175)"/>
<path d="M0 0 C0.33 0.66 0.66 1.32 1 2 C1.66 2.33 2.32 2.66 3 3 C2.67 4.32 2.34 5.64 2 7 C0.02 7.33 -1.96 7.66 -4 8 C-2.87548273 5.0280615 -1.77706209 2.66559313 0 0 Z " fill="#50B18C" transform="translate(409,167)"/>
<path d="M0 0 C0.99 1.32 1.98 2.64 3 4 C2.01 4.495 2.01 4.495 1 5 C0.27840576 6.64363134 -0.39351421 8.31050386 -1 10 C-1.99 9.67 -2.98 9.34 -4 9 C-2.80100302 5.9168649 -1.52299523 2.93720508 0 0 Z " fill="#55B38D" transform="translate(284,162)"/>
<path d="M0 0 C2.98205122 2.55604391 4.58490064 5.35053322 6 9 C5.1875 11.375 5.1875 11.375 4 13 C3.67 10.69 3.34 8.38 3 6 C2.34 6 1.68 6 1 6 C0.67 4.02 0.34 2.04 0 0 Z " fill="#46566A" transform="translate(160,153)"/>
<path d="M0 0 C0 0.66 0 1.32 0 2 C-0.99 2.33 -1.98 2.66 -3 3 C-3.66 2.67 -4.32 2.34 -5 2 C-5 2.66 -5 3.32 -5 4 C-6.65 4.33 -8.3 4.66 -10 5 C-9.01906046 2.54765115 -8.31296172 1.2190732 -6.125 -0.3125 C-3.64990694 -1.1132654 -2.41712366 -0.86325845 0 0 Z " fill="#46AB83" transform="translate(406,122)"/>
<path d="M0 0 C0.99 0.33 1.98 0.66 3 1 C1.6062718 5.43458973 -0.60582235 7.87378374 -4 11 C-3.33333333 8.33333333 -2.66666667 5.66666667 -2 3 C-1.34 3 -0.68 3 0 3 C0 2.01 0 1.02 0 0 Z " fill="#63B99A" transform="translate(444,95)"/>
<path d="M0 0 C2.97246802 2.54782974 4.41535288 5.45340883 6 9 C6 9.66 6 10.32 6 11 C4.125 10.4375 4.125 10.4375 2 9 C0.9100773 5.94821644 0 3.25843762 0 0 Z " fill="#5C6C7F" transform="translate(218,443)"/>
<path d="M0 0 C2.53408774 1.26704387 2.93209972 2.43123157 4.1875 4.9375 C4.55230469 5.64777344 4.91710937 6.35804688 5.29296875 7.08984375 C5.52628906 7.72019531 5.75960937 8.35054688 6 9 C5.67 9.66 5.34 10.32 5 11 C3.0625 10 3.0625 10 1 8 C0.33450549 5.30075428 0.18319237 2.79368363 0 0 Z " fill="#58667C" transform="translate(160,333)"/>
<path d="M0 0 C-1.2491742 3.45925163 -2.67527795 6.14693203 -5 9 C-5.97110486 5.97878489 -6.13617383 3.99536737 -5 1 C-3 0 -3 0 0 0 Z " fill="#4A967D" transform="translate(239,332)"/>
<path d="M0 0 C0.99 0 1.98 0 3 0 C1.84414715 3.91211733 0.64465038 6.8745041 -2 10 C-1.85950482 8.52031676 -1.71245174 7.04125484 -1.5625 5.5625 C-1.48128906 4.73878906 -1.40007812 3.91507812 -1.31640625 3.06640625 C-1 1 -1 1 0 0 Z " fill="#5FAA8E" transform="translate(255,295)"/>
<path d="M0 0 C3 4 3 4 2.6875 6.75 C2.460625 7.4925 2.23375 8.235 2 9 C0.68 9.33 -0.64 9.66 -2 10 C-1.34 6.7 -0.68 3.4 0 0 Z " fill="#415067" transform="translate(216,259)"/>
<path d="M0 0 C1.9375 0.8125 1.9375 0.8125 4 2 C4.33 2.99 4.66 3.98 5 5 C5.66 5.33 6.32 5.66 7 6 C6.67 7.65 6.34 9.3 6 11 C0 3.28571429 0 3.28571429 0 0 Z " fill="#48586E" transform="translate(257,417)"/>
<path d="M0 0 C0.33 0 0.66 0 1 0 C1.08226668 3.04386724 0.97608217 5.07175348 0 8 C-0.66 8 -1.32 8 -2 8 C-2 8.99 -2 9.98 -2 11 C-2.66 10.67 -3.32 10.34 -4 10 C-3.34 7.36 -2.68 4.72 -2 2 C-1.34 2 -0.68 2 0 2 C0 1.34 0 0.68 0 0 Z " fill="#137C5B" transform="translate(331,368)"/>
<path d="M0 0 C0.33 0.99 0.66 1.98 1 3 C1.99 3 2.98 3 4 3 C2.93453047 5.13093906 1.70840281 6.36587557 0 8 C-0.99 7.67 -1.98 7.34 -3 7 C-1.125 1.125 -1.125 1.125 0 0 Z " fill="#49937B" transform="translate(192,338)"/>
<path d="M0 0 C0.66 0.99 1.32 1.98 2 3 C1.649375 3.61875 1.29875 4.2375 0.9375 4.875 C0.628125 5.57625 0.31875 6.2775 0 7 C0.33 7.66 0.66 8.32 1 9 C0.01 9.99 -0.98 10.98 -2 12 C-3.15957207 8.52128379 -2.77456651 7.65780355 -1.5625 4.3125 C-1.13130859 3.10013672 -1.13130859 3.10013672 -0.69140625 1.86328125 C-0.46324219 1.24839844 -0.23507812 0.63351563 0 0 Z " fill="#43A880" transform="translate(279,172)"/>
<path d="M0 0 C1.98 0 3.96 0 6 0 C6.33 0.99 6.66 1.98 7 3 C7.99 3.33 8.98 3.66 10 4 C10 4.66 10 5.32 10 6 C6.00499382 4.6302836 3.19990508 2.74277578 0 0 Z " fill="#60B090" transform="translate(479,120)"/>
<path d="M0 0 C1.32 0 2.64 0 4 0 C3.21302675 3.41021743 2.12880057 6.68885166 1 10 C-0.4606285 7.35261084 -1 6.10551666 -1 3 C-0.67 2.01 -0.34 1.02 0 0 Z " fill="#299F6F" transform="translate(482,35)"/>
<path d="M0 0 C1.65 0 3.3 0 5 0 C5.625 2.8125 5.625 2.8125 6 6 C5.01 7.485 5.01 7.485 4 9 C0 2.25 0 2.25 0 0 Z " fill="#54647D" transform="translate(238,380)"/>
<path d="M0 0 C0.99 0 1.98 0 3 0 C2.67 1.98 2.34 3.96 2 6 C1.34 6 0.68 6 0 6 C-0.33 6.99 -0.66 7.98 -1 9 C-2.60031344 5.79937313 -1.03173691 3.27728194 0 0 Z " fill="#1B8A61" transform="translate(243,314)"/>
<path d="M0 0 C3.05882701 1.52941351 3.68951234 3.94219546 5 7 C4.67 7.66 4.34 8.32 4 9 C2.68 8.34 1.36 7.68 0 7 C0 4.69 0 2.38 0 0 Z " fill="#505F71" transform="translate(208,244)"/>
<path d="M0 0 C0.99 0 1.98 0 3 0 C1.6302836 3.99500618 -0.25722422 6.80009492 -3 10 C-2.4140625 3.84765625 -2.4140625 3.84765625 -2 2 C-1.34 1.67 -0.68 1.34 0 1 C0 0.67 0 0.34 0 0 Z " fill="#69B797" transform="translate(343,241)"/>
<path d="M0 0 C2.64465038 3.1254959 3.84414715 6.08788267 5 10 C2 9 2 9 0.25 6.6875 C-1 4 -1 4 -0.6875 1.6875 C-0.460625 1.130625 -0.23375 0.57375 0 0 Z " fill="#4B5B71" transform="translate(99,218)"/>
<path d="M0 0 C1.32 0.66 2.64 1.32 4 2 C3.01 2.495 3.01 2.495 2 3 C1.34444881 5.52733235 1.34444881 5.52733235 1 8 C-0.32 8.33 -1.64 8.66 -3 9 C-2.01 6.03 -1.02 3.06 0 0 Z " fill="#26A06F" transform="translate(388,203)"/>
<path d="M0 0 C0.66 0 1.32 0 2 0 C2.125 2.375 2.125 2.375 2 5 C1.34 5.66 0.68 6.32 0 7 C-0.99 7 -1.98 7 -3 7 C-1.125 1.125 -1.125 1.125 0 0 Z " fill="#5CB08F" transform="translate(391,196)"/>
<path d="M0 0 C0.99 0.33 1.98 0.66 3 1 C4.1875 4.0625 4.1875 4.0625 5 7 C4.34 7.66 3.68 8.32 3 9 C0.70620251 5.55930376 0 4.27709699 0 0 Z " fill="#3B4D64" transform="translate(176,185)"/>
<path d="M0 0 C0.66 0.33 1.32 0.66 2 1 C0.6302836 4.99500618 -1.25722422 7.80009492 -4 11 C-4.33 9.68 -4.66 8.36 -5 7 C-4.01 7 -3.02 7 -2 7 C-1.855625 6.21625 -1.71125 5.4325 -1.5625 4.625 C-1 2 -1 2 0 0 Z " fill="#71B79C" transform="translate(466,132)"/>
<path d="M0 0 C1.32 0 2.64 0 4 0 C4 1.65 4 3.3 4 5 C1.525 4.01 1.525 4.01 -1 3 C-0.67 2.01 -0.34 1.02 0 0 Z M-2 4 C-1.01 4.33 -0.02 4.66 1 5 C0.01 5 -0.98 5 -2 5 C-2 4.67 -2 4.34 -2 4 Z " fill="#15785C" transform="translate(316,392)"/>
<path d="M0 0 C2.475 0.495 2.475 0.495 5 1 C3.92598892 3.91517292 3.22189824 5.77810176 1 8 C0.17361624 5.10765685 0 3.11257569 0 0 Z " fill="#448E78" transform="translate(209,379)"/>
<path d="M0 0 C3.05882701 1.52941351 3.68951234 3.94219546 5 7 C4.67 7.66 4.34 8.32 4 9 C2.0625 8.25 2.0625 8.25 0 7 C-1.23843794 4.04680182 -1.04187157 3.12561472 0 0 Z " fill="#5E6D84" transform="translate(277,371)"/>
<path d="M0 0 C4.42857143 5.14285714 4.42857143 5.14285714 5 9 C4.01 8.67 3.02 8.34 2 8 C2 7.34 2 6.68 2 6 C1.01 5.67 0.02 5.34 -1 5 C-0.67 4.67 -0.34 4.34 0 4 C-0.66 3.34 -1.32 2.68 -2 2 C-1.34 2 -0.68 2 0 2 C0 1.34 0 0.68 0 0 Z " fill="#56677C" transform="translate(272,362)"/>
<path d="M0 0 C1.9375 0.3125 1.9375 0.3125 4 1 C4.33 1.99 4.66 2.98 5 4 C2.69 4.33 0.38 4.66 -2 5 C-1.34 3.35 -0.68 1.7 0 0 Z " fill="#188661" transform="translate(234,328)"/>
<path d="M0 0 C2.82249951 1.03491649 3.83374226 1.69915265 5.3125 4.375 C6.04361747 7.16653942 5.79596365 8.30861211 5 11 C4.16151196 9.54462432 3.32936066 8.08559627 2.5 6.625 C1.80390625 5.40683594 1.80390625 5.40683594 1.09375 4.1640625 C0 2 0 2 0 0 Z " fill="#5B697B" transform="translate(101,305)"/>
<path d="M0 0 C0.99 0.33 1.98 0.66 3 1 C3.33 2.98 3.66 4.96 4 7 C2.68 7 1.36 7 0 7 C-0.38133299 5.0085944 -0.71325582 3.00720923 -1 1 C-0.67 0.67 -0.34 0.34 0 0 Z " fill="#1C8C62" transform="translate(219,288)"/>
<path d="M0 0 C2.21436106 2.21436106 2.74398588 2.92783056 3 6 C1.5625 9.25 1.5625 9.25 0 12 C-0.33 10.68 -0.66 9.36 -1 8 C-0.34 8 0.32 8 1 8 C0.34 5.69 -0.32 3.38 -1 1 C-0.67 0.67 -0.34 0.34 0 0 Z " fill="#4EAC89" transform="translate(393,256)"/>
<path d="M0 0 C2.97069541 2.54631035 4.4775751 5.42230149 6 9 C5.67 9.66 5.34 10.32 5 11 C4.01 10.67 3.02 10.34 2 10 C2 8.02 2 6.04 2 4 C1.34 4 0.68 4 0 4 C0 2.68 0 1.36 0 0 Z " fill="#707D90" transform="translate(195,219)"/>
<path d="M0 0 C1.125 1.75 1.125 1.75 2 4 C1.125 6.25 1.125 6.25 0 8 C-1.32 8 -2.64 8 -4 8 C-2.87548273 5.0280615 -1.77706209 2.66559313 0 0 Z " fill="#65B898" transform="translate(451,100)"/>
<path d="M0 0 C0.66 1.32 1.32 2.64 2 4 C1.01 4.33 0.02 4.66 -1 5 C-1 5.66 -1 6.32 -1 7 C-1.66 7 -2.32 7 -3 7 C-3.33 8.32 -3.66 9.64 -4 11 C-4.66 10.67 -5.32 10.34 -6 10 C-4.02 6.7 -2.04 3.4 0 0 Z " fill="#6DB599" transform="translate(474,64)"/>
<path d="M0 0 C3.09592835 3.5087188 4.74194623 6.49197399 6 11 C5.01 10.67 4.02 10.34 3 10 C2.67 8.02 2.34 6.04 2 4 C1.34 4 0.68 4 0 4 C0 2.68 0 1.36 0 0 Z " fill="#747F90" transform="translate(166,344)"/>
<path d="M0 0 C4.875 1.75 4.875 1.75 6 4 C5.72057545 5.67654729 5.39171753 7.34608154 5 9 C2.67527795 6.14693203 1.2491742 3.45925163 0 0 Z " fill="#55637C" transform="translate(122,345)"/>
<path d="M0 0 C0.99 0.33 1.98 0.66 3 1 C3 3 3 5 3 7 C2.01 7.33 1.02 7.66 0 8 C-0.79953138 4.71303767 -1.09658936 3.28976808 0 0 Z " fill="#1C8B64" transform="translate(325,310)"/>
<path d="M0 0 C2.86453858 3.41016497 4.34703566 6.90694544 6 11 C5.34 11 4.68 11 4 11 C3.67 10.01 3.34 9.02 3 8 C2.01 7.34 1.02 6.68 0 6 C-0.75 4 -0.75 4 -1 2 C-0.67 1.34 -0.34 0.68 0 0 Z " fill="#546479" transform="translate(141,297)"/>
<path d="M0 0 C0.99 0.33 1.98 0.66 3 1 C3.33 2.98 3.66 4.96 4 7 C4.99 7 5.98 7 7 7 C6 9 6 9 4 10 C3.32845067 8.71086513 2.66291141 7.41859796 2 6.125 C1.62875 5.40570313 1.2575 4.68640625 0.875 3.9453125 C0 2 0 2 0 0 Z " fill="#5C6C7F" transform="translate(60,227)"/>
<path d="M0 0 C2 1 2 1 3.125 4.0625 C3.41375 5.031875 3.7025 6.00125 4 7 C3.01 6.67 2.02 6.34 1 6 C0.67 5.34 0.34 4.68 0 4 C-2.02463255 3.34786708 -2.02463255 3.34786708 -4 3 C-3 1 -3 1 0 0 Z " fill="#40526B" transform="translate(104,228)"/>
<path d="M0 0 C0.99 0.33 1.98 0.66 3 1 C1.90931332 4.77545388 1.0916909 7.47043472 -2 10 C-2 8.35 -2 6.7 -2 5 C-1.34 5 -0.68 5 0 5 C0 3.35 0 1.7 0 0 Z " fill="#6CB595" transform="translate(294,220)"/>
<path d="M0 0 C1.32 0 2.64 0 4 0 C2.92598892 2.91517292 2.22189824 4.77810176 0 7 C-0.66 5.35 -1.32 3.7 -2 2 C-1.34 2 -0.68 2 0 2 C0 1.34 0 0.68 0 0 Z " fill="#57B08E" transform="translate(438,179)"/>
<path d="M0 0 C1.24546405 2.49092811 0.7767578 3.41080733 0 6 C-0.66 6 -1.32 6 -2 6 C-2 6.66 -2 7.32 -2 8 C-3.32 8.33 -4.64 8.66 -6 9 C-4.16172132 5.84866512 -2.24027294 2.88035092 0 0 Z " fill="#73B59A" transform="translate(356,174)"/>
<path d="M0 0 C0.99 0.33 1.98 0.66 3 1 C2.34 2.65 1.68 4.3 1 6 C-0.32 5.67 -1.64 5.34 -3 5 C-2.01 3.35 -1.02 1.7 0 0 Z " fill="#44A881" transform="translate(413,161)"/>
<path d="M0 0 C0.66 1.32 1.32 2.64 2 4 C0.35 5.65 -1.3 7.3 -3 9 C-3.26218749 5.85375007 -3.24754367 4.38162983 -1.5 1.6875 C-1.005 1.130625 -0.51 0.57375 0 0 Z " fill="#44A881" transform="translate(412,106)"/>
<path d="M0 0 C0.33 1.32 0.66 2.64 1 4 C0.34 4 -0.32 4 -1 4 C-0.67 4.99 -0.34 5.98 0 7 C-1.32 7.33 -2.64 7.66 -4 8 C-3.50168276 4.31245243 -2.89932357 2.39509338 0 0 Z " fill="#59AE8D" transform="translate(424,92)"/>
<path d="M0 0 C0.33 0.99 0.66 1.98 1 3 C-0.32 4.32 -1.64 5.64 -3 7 C-3.66 5.35 -4.32 3.7 -5 2 C-3.35 1.34 -1.7 0.68 0 0 Z " fill="#7FB59F" transform="translate(491,30)"/>
<path d="M0 0 C1.9375 0.375 1.9375 0.375 4 1 C5.35439668 3.70879335 5.06501451 6.00933268 5 9 C2.67527795 6.14693203 1.2491742 3.45925163 0 0 Z " fill="#54647B" transform="translate(176,446)"/>
<path d="M0 0 C0.66 0 1.32 0 2 0 C5 5.75 5 5.75 5 8 C4.01 8 3.02 8 2 8 C0.74335022 5.09399739 0 3.20395416 0 0 Z " fill="#022F43" transform="translate(282,384)"/>
<path d="M0 0 C0.66 0.33 1.32 0.66 2 1 C0.52307692 5.67692308 0.52307692 5.67692308 -2.125 7.3125 C-3.053125 7.6528125 -3.053125 7.6528125 -4 8 C-3.40138258 5.64828869 -2.73075648 3.3140622 -2 1 C-1.34 0.67 -0.68 0.34 0 0 Z " fill="#16775B" transform="translate(293,370)"/>
<path d="M0 0 C0.99 0.33 1.98 0.66 3 1 C2.67 2.98 2.34 4.96 2 7 C1.01 7 0.02 7 -1 7 C-0.67 4.69 -0.34 2.38 0 0 Z " fill="#405169" transform="translate(234,364)"/>
<path d="M0 0 C0.66 1.32 1.32 2.64 2 4 C1.34 4 0.68 4 0 4 C-0.33 5.65 -0.66 7.3 -1 9 C-1.99 8.67 -2.98 8.34 -4 8 C-4 7.34 -4 6.68 -4 6 C-3.34 6 -2.68 6 -2 6 C-1.34 4.02 -0.68 2.04 0 0 Z " fill="#4D8B82" transform="translate(181,359)"/>
<path d="M0 0 C0.33 0 0.66 0 1 0 C1.33 1.98 1.66 3.96 2 6 C0.68 6 -0.64 6 -2 6 C-2 6.99 -2 7.98 -2 9 C-2.66 9 -3.32 9 -4 9 C-2.94124926 5.59687262 -1.99097846 2.98646769 0 0 Z " fill="#6BA894" transform="translate(313,329)"/>
<path d="M0 0 C0.66 1.32 1.32 2.64 2 4 C1.01 4.495 1.01 4.495 0 5 C-1.13350534 7.01669827 -1.13350534 7.01669827 -2 9 C-2.66 9 -3.32 9 -4 9 C-2.80100302 5.9168649 -1.52299523 2.93720508 0 0 Z " fill="#60A791" transform="translate(217,290)"/>
<path d="M0 0 C0.33 1.32 0.66 2.64 1 4 C0.01 4.495 0.01 4.495 -1 5 C-1.65555119 7.52733235 -1.65555119 7.52733235 -2 10 C-2.99 10 -3.98 10 -5 10 C-3.84414715 6.08788267 -2.64465038 3.1254959 0 0 Z " fill="#6DB198" transform="translate(339,284)"/>
<path d="M0 0 C0 3.69418201 -1.28179295 5.77836178 -3 9 C-4.125 7.25 -4.125 7.25 -5 5 C-4.3125 2.8125 -4.3125 2.8125 -3 1 C-2.01 0.67 -1.02 0.34 0 0 Z " fill="#65B398" transform="translate(413,229)"/>
<path d="M0 0 C2.15377564 2.62198774 3.40072174 4.64404172 4 8 C3.01 8.495 3.01 8.495 2 9 C2 8.34 2 7.68 2 7 C1.34 7 0.68 7 0 7 C-0.38133299 5.0085944 -0.71325582 3.00720923 -1 1 C-0.67 0.67 -0.34 0.34 0 0 Z " fill="#4C5E71" transform="translate(89,199)"/>
<path d="M0 0 C0.99 0 1.98 0 3 0 C1.84826645 2.46800047 0.95216435 4.04783565 -1 6 C-3.125 5.625 -3.125 5.625 -5 5 C-4.01 5 -3.02 5 -2 5 C-1.7834375 4.0409375 -1.7834375 4.0409375 -1.5625 3.0625 C-1 1 -1 1 0 0 Z " fill="#41A57D" transform="translate(340,194)"/>
<path d="M0 0 C0.66 0.33 1.32 0.66 2 1 C0.7508258 4.45925163 -0.67527795 7.14693203 -3 10 C-3 8.02 -3 6.04 -3 4 C-2.34 4 -1.68 4 -1 4 C-0.67 2.68 -0.34 1.36 0 0 Z " fill="#63B393" transform="translate(449,162)"/>
<path d="M0 0 C1.10844919 3.32534757 0.84454356 5.62182575 0 9 C-0.33 8.34 -0.66 7.68 -1 7 C-1.99 7.33 -2.98 7.66 -4 8 C-2.87548273 5.0280615 -1.77706209 2.66559313 0 0 Z " fill="#61B494" transform="translate(431,132)"/>
<path d="M0 0 C1.65 0 3.3 0 5 0 C5.33 1.65 5.66 3.3 6 5 C5.01 5.495 5.01 5.495 4 6 C4 5.34 4 4.68 4 4 C2.68 3.67 1.36 3.34 0 3 C0 2.01 0 1.02 0 0 Z " fill="#37A77A" transform="translate(472,48)"/>
<path d="M0 0 C1.32 0 2.64 0 4 0 C4 0.66 4 1.32 4 2 C3.01 2.495 3.01 2.495 2 3 C2 3.99 2 4.98 2 6 C0.68 6.33 -0.64 6.66 -2 7 C-1.34 4.69 -0.68 2.38 0 0 Z " fill="#30A477" transform="translate(493,35)"/>
<path d="M0 0 C0.66 0.99 1.32 1.98 2 3 C1.01 3.33 0.02 3.66 -1 4 C-1 4.66 -1 5.32 -1 6 C-1.99 6.33 -2.98 6.66 -4 7 C-4 5.68 -4 4.36 -4 3 C-2 1.25 -2 1.25 0 0 Z " fill="#1A8060" transform="translate(310,340)"/>
<path d="M0 0 C1.25541557 3.76624671 0.37061958 5.37188934 -1 9 C-1.99 8.34 -2.98 7.68 -4 7 C-2.68 4.69 -1.36 2.38 0 0 Z " fill="#5AA48A" transform="translate(324,310)"/>
<path d="M0 0 C0.66 0.66 1.32 1.32 2 2 C-0.75 8.875 -0.75 8.875 -3 10 C-3 8.35 -3 6.7 -3 5 C-2.01 4.67 -1.02 4.34 0 4 C0 2.68 0 1.36 0 0 Z " fill="#249067" transform="translate(340,284)"/>
<path d="M0 0 C0.66 0 1.32 0 2 0 C0.90931332 3.77545388 0.0916909 6.47043472 -3 9 C-3 7.35 -3 5.7 -3 4 C-2.01 3.67 -1.02 3.34 0 3 C0 2.01 0 1.02 0 0 Z " fill="#5BAA8C" transform="translate(381,283)"/>
<path d="M0 0 C0.66 0 1.32 0 2 0 C2 0.66 2 1.32 2 2 C3.32 1.67 4.64 1.34 6 1 C6.33 2.32 6.66 3.64 7 5 C6.34 5 5.68 5 5 5 C4.34 5.66 3.68 6.32 3 7 C2.01 4.69 1.02 2.38 0 0 Z " fill="#5C6A81" transform="translate(183,280)"/>
<path d="M0 0 C3.0916909 2.52956528 3.90931332 5.22454612 5 9 C3.68 9 2.36 9 1 9 C1.33 7.35 1.66 5.7 2 4 C1.34 4 0.68 4 0 4 C0 2.68 0 1.36 0 0 Z " fill="#576A84" transform="translate(126,269)"/>
<path d="M0 0 C1.98 0.99 1.98 0.99 4 2 C4 3.32 4 4.64 4 6 C3.01 6 2.02 6 1 6 C0.67 4.02 0.34 2.04 0 0 Z " fill="#283B53" transform="translate(160,233)"/>
<path d="M0 0 C1 3 1 3 0 6 C-2.0625 6.6875 -2.0625 6.6875 -4 7 C-3.39816251 4.97954558 -2.72693904 2.97888961 -2 1 C-1.34 0.67 -0.68 0.34 0 0 Z " fill="#3C9F77" transform="translate(360,171)"/>
<path d="M0 0 C0.99 0.33 1.98 0.66 3 1 C4.1875 4.0625 4.1875 4.0625 5 7 C4.01 7 3.02 7 2 7 C1.01 5.02 0.02 3.04 -1 1 C-0.67 0.67 -0.34 0.34 0 0 Z " fill="#394B5E" transform="translate(149,134)"/>
<path d="M0 0 C1.98 0.495 1.98 0.495 4 1 C3.67 2.32 3.34 3.64 3 5 C1.68 5.33 0.36 5.66 -1 6 C-0.67 4.02 -0.34 2.04 0 0 Z " fill="#082043" transform="translate(178,441)"/>
<path d="M0 0 C0 3.69418201 -1.28179295 5.77836178 -3 9 C-3.66 8.67 -4.32 8.34 -5 8 C-3.8141763 4.62496331 -2.72426311 2.35277269 0 0 Z " fill="#5A697C" transform="translate(303,425)"/>
<path d="M0 0 C0.6875 1.8125 0.6875 1.8125 1 4 C-0.4375 5.75 -0.4375 5.75 -2 7 C-2.33 5.35 -2.66 3.7 -3 2 C-2.01 1.34 -1.02 0.68 0 0 Z " fill="#3E786F" transform="translate(306,417)"/>
<path d="M0 0 C0.66 0.99 1.32 1.98 2 3 C1.34 4.32 0.68 5.64 0 7 C0 6.34 0 5.68 0 5 C-0.66 5 -1.32 5 -2 5 C-2.33 5.66 -2.66 6.32 -3 7 C-3.33 5.68 -3.66 4.36 -4 3 C-3.01 2.67 -2.02 2.34 -1 2 C-0.67 1.34 -0.34 0.68 0 0 Z " fill="#314465" transform="translate(150,386)"/>
<path d="M0 0 C2.32472205 2.85306797 3.7508258 5.54074837 5 9 C3.0625 8.4375 3.0625 8.4375 1 7 C0.25 3.375 0.25 3.375 0 0 Z " fill="#4F6274" transform="translate(265,349)"/>
<path d="M0 0 C0.6875 1.625 0.6875 1.625 1 4 C-0.4375 7.25 -0.4375 7.25 -2 10 C-2.33 10 -2.66 10 -3 10 C-3.36629408 5.72656908 -2.40814077 3.51187196 0 0 Z " fill="#66A390" transform="translate(233,339)"/>
<path d="M0 0 C1.32 0 2.64 0 4 0 C3.67 2.31 3.34 4.62 3 7 C1.68 5.68 0.36 4.36 -1 3 C-0.67 2.01 -0.34 1.02 0 0 Z " fill="#0B2042" transform="translate(113,323)"/>
<path d="M0 0 C0.66 0 1.32 0 2 0 C1.67 0.99 1.34 1.98 1 3 C0.67 2.01 0.34 1.02 0 0 Z M-1 3 C-0.34 3 0.32 3 1 3 C0.67 4.98 0.34 6.96 0 9 C-0.66 9 -1.32 9 -2 9 C-1.67 7.02 -1.34 5.04 -1 3 Z " fill="#198460" transform="translate(205,315)"/>
<path d="M0 0 C1.1875 1.625 1.1875 1.625 2 4 C0.625 7.25 0.625 7.25 -1 10 C-1.66 8.68 -2.32 7.36 -3 6 C-2.34 5.01 -1.68 4.02 -1 3 C-0.67 2.01 -0.34 1.02 0 0 Z " fill="#6DAB96" transform="translate(251,303)"/>
<path d="M0 0 C0.99 0 1.98 0 3 0 C3 1.98 3 3.96 3 6 C2.34 6 1.68 6 1 6 C1 5.34 1 4.68 1 4 C0.34 4 -0.32 4 -1 4 C-0.67 2.68 -0.34 1.36 0 0 Z " fill="#389576" transform="translate(212,299)"/>
<path d="M0 0 C0.33 1.32 0.66 2.64 1 4 C0.34 4 -0.32 4 -1 4 C-1 5.65 -1 7.3 -1 9 C-1.99 9 -2.98 9 -4 9 C-2.94124926 5.59687262 -1.99097846 2.98646769 0 0 Z " fill="#6BB59D" transform="translate(348,268)"/>
<path d="M0 0 C0.66 1.32 1.32 2.64 2 4 C-1.76687864 4 -2.91190305 3.76462683 -6 2 C-2.25 0 -2.25 0 0 0 Z " fill="#072042" transform="translate(214,266)"/>
<path d="M0 0 C0.99 0.33 1.98 0.66 3 1 C1.25 6.75 1.25 6.75 -1 9 C-0.67 6.03 -0.34 3.06 0 0 Z " fill="#64B194" transform="translate(289,229)"/>
<path d="M0 0 C0.66 1.32 1.32 2.64 2 4 C1.01 4 0.02 4 -1 4 C-1.33 4.66 -1.66 5.32 -2 6 C-2.66 4.35 -3.32 2.7 -4 1 C-2.68 0.67 -1.36 0.34 0 0 Z " fill="#334662" transform="translate(147,202)"/>
<path d="M0 0 C3 0 3 0 6 1 C4.35 2.32 2.7 3.64 1 5 C0.34 4.67 -0.32 4.34 -1 4 C-0.67 2.68 -0.34 1.36 0 0 Z " fill="#46AE86" transform="translate(265,198)"/>
<path d="M0 0 C1.32 0.33 2.64 0.66 4 1 C4.625 2.875 4.625 2.875 5 5 C4.34 5.66 3.68 6.32 3 7 C2.01 4.69 1.02 2.38 0 0 Z " fill="#43556D" transform="translate(133,184)"/>
<path d="M0 0 C2.0625 0.4375 2.0625 0.4375 4 1 C3.34 1 2.68 1 2 1 C1.67 2.98 1.34 4.96 1 7 C0.01 5.68 -0.98 4.36 -2 3 C-1 1 -1 1 0 0 Z " fill="#4D5E76" transform="translate(20,147)"/>
<path d="M0 0 C0.66 1.32 1.32 2.64 2 4 C0.35 4.33 -1.3 4.66 -3 5 C-3 5.66 -3 6.32 -3 7 C-3.66 6.67 -4.32 6.34 -5 6 C-4.67 5.34 -4.34 4.68 -4 4 C-3.34 4 -2.68 4 -2 4 C-1.34 2.68 -0.68 1.36 0 0 Z " fill="#5CAE8C" transform="translate(382,143)"/>
<path d="M0 0 C2.6875 0.3125 2.6875 0.3125 5 1 C3.60804085 3.7839183 1.84424221 3.97898997 -1 5 C-1.66 4.34 -2.32 3.68 -3 3 C-1.8125 1.4375 -1.8125 1.4375 0 0 Z " fill="#34A679" transform="translate(492,123)"/>
<path d="M0 0 C0.66 0.33 1.32 0.66 2 1 C1.38125 1.2475 0.7625 1.495 0.125 1.75 C-2.35068687 3.20628639 -2.95125002 4.37812506 -4 7 C-4.66 6.67 -5.32 6.34 -6 6 C-6 5.01 -6 4.02 -6 3 C-4.03533587 1.93224776 -2.03144641 0.93446535 0 0 Z " fill="#89BCA7" transform="translate(410,67)"/>
<path d="M0 0 C0.99 0.99 1.98 1.98 3 3 C2.67 3.66 2.34 4.32 2 5 C0.35 4.67 -1.3 4.34 -3 4 C-2.67 3.34 -2.34 2.68 -2 2 C-1.34 2 -0.68 2 0 2 C0 1.34 0 0.68 0 0 Z " fill="#0A2143" transform="translate(188,458)"/>
<path d="M0 0 C1.98 0.495 1.98 0.495 4 1 C3.01 2.98 2.02 4.96 1 7 C-1 4 -1 4 -0.625 1.8125 C-0.41875 1.214375 -0.2125 0.61625 0 0 Z " fill="#438A7A" transform="translate(316,396)"/>
<path d="M0 0 C0 1.98 0 3.96 0 6 C-1.32 5.67 -2.64 5.34 -4 5 C-3.625 3.0625 -3.625 3.0625 -3 1 C-1 0 -1 0 0 0 Z " fill="#699594" transform="translate(286,379)"/>
<path d="M0 0 C0.66 0.33 1.32 0.66 2 1 C2 2.32 2 3.64 2 5 C2.66 5 3.32 5 4 5 C3.67 5.99 3.34 6.98 3 8 C2.67 7.67 2.34 7.34 2 7 C1.01 7.495 1.01 7.495 0 8 C-1.09658936 4.71023192 -0.79953138 3.28696233 0 0 Z " fill="#08203F" transform="translate(164,343)"/>
<path d="M0 0 C1.32 0.66 2.64 1.32 4 2 C4 2.99 4 3.98 4 5 C2.35 4.67 0.7 4.34 -1 4 C-1 1 -1 1 0 0 Z " fill="#2E4766" transform="translate(211,268)"/>
<path d="M0 0 C0.93065133 2.60582371 1.14917407 3.64198224 0.0625 6.25 C-0.4634375 7.11625 -0.4634375 7.11625 -1 8 C-1.99 7.67 -2.98 7.34 -4 7 C-2.68 4.69 -1.36 2.38 0 0 Z " fill="#6DB49A" transform="translate(355,256)"/>
<path d="M0 0 C0.99 0.33 1.98 0.66 3 1 C1.84826645 3.46800047 0.95216435 5.04783565 -1 7 C-1.04254356 5.00045254 -1.04080783 2.99958364 -1 1 C-0.67 0.67 -0.34 0.34 0 0 Z " fill="#5CAC8C" transform="translate(336,251)"/>
<path d="M0 0 C1.32 0.33 2.64 0.66 4 1 C4 2.98 4 4.96 4 7 C2 5.1875 2 5.1875 0 3 C0 2.01 0 1.02 0 0 Z " fill="#6FB89C" transform="translate(307,224)"/>
<path d="M0 0 C1.32 0.66 2.64 1.32 4 2 C2.02 4.97 2.02 4.97 0 8 C-0.98120464 4.94736336 -0.98120464 3.05263664 0 0 Z " fill="#5DB091" transform="translate(433,188)"/>
<path d="M0 0 C0.33 0 0.66 0 1 0 C1 1.98 1 3.96 1 6 C-3.75 5.25 -3.75 5.25 -6 3 C-3.03 3.495 -3.03 3.495 0 4 C0 2.68 0 1.36 0 0 Z " fill="#50A080" transform="translate(498,125)"/>
<path d="M0 0 C1 2 1 2 0.3125 4.5 C-1.15567038 7.29651501 -2.09303901 7.93411431 -5 9 C-3.7508258 5.54074837 -2.32472205 2.85306797 0 0 Z " fill="#76BDA4" transform="translate(445,110)"/>
</svg>
